<svg width="198" height="42" viewBox="0 0 198 42" fill="none" xmlns="http://www.w3.org/2000/svg">
<path fill-rule="evenodd" clip-rule="evenodd" d="M73.9397 3.57604C74.0436 3.45492 74.0974 3.29184 74.0974 3.14198C74.0974 2.95595 74.0322 2.80603 73.9519 2.70967C73.8716 2.61332 73.7463 2.53471 73.5905 2.53471C73.4348 2.53471 73.3095 2.61332 73.2292 2.70967C73.1489 2.80603 73.0837 2.95595 73.0837 3.14198C73.0837 3.32801 73.1489 3.47794 73.2292 3.57429C73.3095 3.67065 73.4348 3.74925 73.5905 3.74925C73.7134 3.74925 73.8408 3.69136 73.9397 3.57604ZM73.5905 2.32883C73.2235 2.32883 72.9129 2.66764 72.9129 3.14198C72.9129 3.58244 73.2235 3.95514 73.5905 3.95514C73.9576 3.95514 74.2682 3.58244 74.2682 3.14198C74.2682 2.70152 73.9576 2.32883 73.5905 2.32883Z" fill="white"/>
<path fill-rule="evenodd" clip-rule="evenodd" d="M73.7112 20.2704C73.4972 20.2704 73.3288 20.4249 73.3288 20.6248C73.3288 20.8246 73.497 20.9793 73.7112 20.9793C73.9543 20.9793 74.1229 20.7978 74.1229 20.6248C74.1229 20.5532 74.0893 20.4659 74.0026 20.3876C73.9147 20.3083 73.8066 20.2704 73.7112 20.2704ZM73.7112 19.134C72.8321 19.134 72.0995 19.7846 72.0995 20.6248C72.0995 21.438 72.8028 22.1156 73.7112 22.1156C74.6196 22.1156 75.3522 21.438 75.3522 20.6248C75.3522 19.8117 74.5903 19.134 73.7112 19.134Z" fill="white"/>
<path fill-rule="evenodd" clip-rule="evenodd" d="M73.7263 36.6323C72.9071 36.6323 72.2517 37.2865 72.2517 38.1076C72.2517 38.9288 72.9071 39.583 73.7263 39.583C74.5454 39.583 75.2008 38.9288 75.2008 38.1076C75.2008 37.2865 74.5454 36.6323 73.7263 36.6323ZM73.7263 35.3971C72.2237 35.3971 71.0157 36.6051 71.0157 38.1076C71.0157 39.6102 72.2237 40.8182 73.7263 40.8182C75.2288 40.8182 76.4368 39.6102 76.4368 38.1076C76.4368 36.6051 75.2288 35.3971 73.7263 35.3971Z" fill="white"/>
<path fill-rule="evenodd" clip-rule="evenodd" d="M65.459 1.91546C64.7124 1.91546 64.0977 2.52895 64.0977 3.2775C64.0977 4.02606 64.7124 4.63955 65.459 4.63955C66.2056 4.63955 66.8202 4.02606 66.8202 3.2775C66.8202 2.52895 66.2056 1.91546 65.459 1.91546ZM65.459 0.702515C64.0413 0.702515 62.884 1.85981 62.884 3.2775C62.884 4.69519 64.0413 5.85249 65.459 5.85249C66.8766 5.85249 68.034 4.69519 68.034 3.2775C68.034 1.85981 66.8766 0.702515 65.459 0.702515Z" fill="white"/>
<path fill-rule="evenodd" clip-rule="evenodd" d="M65.6094 18.9601C64.6441 18.9601 63.8576 19.7191 63.8576 20.6248C63.8576 21.5435 64.6578 22.2895 65.6094 22.2895C66.5449 22.2895 67.3315 21.5588 67.3315 20.6248C67.3315 19.6831 66.5665 18.9601 65.6094 18.9601ZM65.6094 17.7788C63.948 17.7788 62.613 19.075 62.613 20.6248C62.613 22.2028 63.9777 23.4709 65.6094 23.4709C67.2411 23.4709 68.5761 22.2028 68.5761 20.6248C68.5761 19.0468 67.2707 17.7788 65.6094 17.7788Z" fill="white"/>
<path fill-rule="evenodd" clip-rule="evenodd" d="M65.4586 36.3053C64.4133 36.3053 63.5751 37.1195 63.5751 38.1076C63.5751 39.1166 64.4057 39.91 65.4586 39.91C66.5115 39.91 67.342 39.1166 67.342 38.1076C67.342 37.0986 66.5115 36.3053 65.4586 36.3053ZM65.4586 35.126C63.7236 35.126 62.3415 36.4762 62.3415 38.1076C62.3415 39.7672 63.7236 41.0892 65.4586 41.0892C67.1936 41.0892 68.5757 39.7672 68.5757 38.1076C68.5757 36.4481 67.1936 35.126 65.4586 35.126Z" fill="white"/>
<path fill-rule="evenodd" clip-rule="evenodd" d="M49.4667 3.63289C49.8115 3.63289 50.0812 3.41616 50.0812 3.14196C50.0812 2.86776 49.8115 2.65102 49.4667 2.65102C49.1219 2.65102 48.8522 2.86777 48.8522 3.14196C48.8522 3.41614 49.1219 3.63289 49.4667 3.63289ZM49.4667 2.59985C49.0971 2.59985 48.7891 2.84626 48.7891 3.14196C48.7891 3.43765 49.0971 3.68406 49.4667 3.68406C49.8363 3.68406 50.1443 3.43765 50.1443 3.14196C50.1443 2.84626 49.8363 2.59985 49.4667 2.59985Z" fill="white"/>
<path fill-rule="evenodd" clip-rule="evenodd" d="M49.3309 19.2231C48.5117 19.2231 47.8563 19.8446 47.8563 20.6247C47.8563 21.4049 48.5117 22.0263 49.3309 22.0263C50.1501 22.0263 50.8054 21.4049 50.8054 20.6247C50.8054 19.8446 50.1501 19.2231 49.3309 19.2231ZM49.3309 18.0497C47.8283 18.0497 46.6204 19.1973 46.6204 20.6247C46.6204 22.0522 47.8283 23.1997 49.3309 23.1997C50.8334 23.1997 52.0414 22.0522 52.0414 20.6247C52.0414 19.1973 50.8334 18.0497 49.3309 18.0497Z" fill="white"/>
<path fill-rule="evenodd" clip-rule="evenodd" d="M49.4667 38.6478C49.8694 38.6478 50.1427 38.387 50.1427 38.1076C50.1427 37.9849 50.0809 37.8424 49.9402 37.7298C49.7994 37.6172 49.6209 37.5675 49.4667 37.5675C49.3125 37.5675 49.134 37.6172 48.9932 37.7298C48.8525 37.8424 48.7906 37.9849 48.7906 38.1076C48.7906 38.2304 48.8525 38.3728 48.9932 38.4854C49.134 38.598 49.3125 38.6478 49.4667 38.6478ZM49.4667 37.5655C49.0795 37.5655 48.7891 37.8237 48.7891 38.1076C48.7891 38.4174 49.0795 38.6497 49.4667 38.6497C49.8539 38.6497 50.1443 38.4174 50.1443 38.1076C50.1443 37.7979 49.8539 37.5655 49.4667 37.5655Z" fill="white"/>
<path fill-rule="evenodd" clip-rule="evenodd" d="M41.2754 3.07453C41.2623 3.08908 41.2525 3.1095 41.2525 3.142C41.2525 3.1745 41.2623 3.19492 41.2754 3.20948C41.2885 3.22402 41.3065 3.23466 41.3351 3.23466C41.3636 3.23466 41.3817 3.22402 41.3948 3.20948C41.4079 3.19492 41.4177 3.1745 41.4177 3.142C41.4177 3.1095 41.4079 3.08908 41.3948 3.07452C41.3817 3.05998 41.3636 3.04934 41.3351 3.04934C41.3065 3.04934 41.2885 3.05998 41.2754 3.07453ZM41.3351 1.78674C40.6575 1.78674 40.1154 2.38908 40.1154 3.142C40.1154 3.89492 40.6575 4.49726 41.3351 4.49726C42.0127 4.49726 42.5548 3.89492 42.5548 3.142C42.5548 2.38908 42.0127 1.78674 41.3351 1.78674Z" fill="white"/>
<path fill-rule="evenodd" clip-rule="evenodd" d="M41.3353 20.0354C41.0052 20.0354 40.7467 20.2928 40.7467 20.6248C40.7467 20.9568 41.0052 21.2142 41.3353 21.2142C41.6654 21.2142 41.924 20.9568 41.924 20.6248C41.924 20.2928 41.6654 20.0354 41.3353 20.0354ZM41.3353 18.863C40.3565 18.863 39.5735 19.646 39.5735 20.6248C39.5735 21.6036 40.3565 22.3866 41.3353 22.3866C42.3141 22.3866 43.0972 21.6036 43.0972 20.6248C43.0972 19.646 42.3141 18.863 41.3353 18.863Z" fill="white"/>
<path fill-rule="evenodd" clip-rule="evenodd" d="M33.3392 19.5918C32.8027 19.5918 32.3677 20.0527 32.3677 20.6248C32.3677 21.1969 32.8027 21.6579 33.3392 21.6579C33.8757 21.6579 34.3107 21.1969 34.3107 20.6248C34.3107 20.0527 33.8757 19.5918 33.3392 19.5918ZM33.3392 18.3209C32.1409 18.3209 31.1708 19.3516 31.1708 20.6248C31.1708 21.8981 32.1409 22.9288 33.3392 22.9288C34.5375 22.9288 35.5076 21.8981 35.5076 20.6248C35.5076 19.3516 34.5375 18.3209 33.3392 18.3209Z" fill="white"/>
<path fill-rule="evenodd" clip-rule="evenodd" d="M25.0723 2.50723C24.7422 2.50723 24.4837 2.78443 24.4837 3.14199C24.4837 3.49955 24.7422 3.77675 25.0723 3.77675C25.4024 3.77675 25.661 3.49955 25.661 3.14199C25.661 2.78443 25.4024 2.50723 25.0723 2.50723ZM25.0723 1.24463C24.0935 1.24463 23.3105 2.0879 23.3105 3.14199C23.3105 4.19608 24.0935 5.03935 25.0723 5.03935C26.0511 5.03935 26.8342 4.19608 26.8342 3.14199C26.8342 2.0879 26.0511 1.24463 25.0723 1.24463Z" fill="white"/>
<path fill-rule="evenodd" clip-rule="evenodd" d="M25.0719 19.5435C24.4752 19.5435 23.9915 20.0352 23.9915 20.6248C23.9915 21.2336 24.4652 21.7061 25.0719 21.7061C25.6787 21.7061 26.1524 21.2336 26.1524 20.6248C26.1524 20.0161 25.6787 19.5435 25.0719 19.5435ZM25.0719 18.3209C23.7887 18.3209 22.768 19.3708 22.768 20.6248C22.768 21.908 23.7887 22.9288 25.0719 22.9288C26.3551 22.9288 27.3759 21.908 27.3759 20.6248C27.3759 19.3416 26.3551 18.3209 25.0719 18.3209Z" fill="white"/>
<path fill-rule="evenodd" clip-rule="evenodd" d="M8.94438 3.59143C9.1912 3.59143 9.39466 3.38675 9.39466 3.14198C9.39466 2.89721 9.1912 2.69254 8.94438 2.69254C8.69756 2.69254 8.4941 2.89721 8.4941 3.14198C8.4941 3.38675 8.69756 3.59143 8.94438 3.59143ZM8.94438 2.32883C8.49263 2.32883 8.13123 2.69023 8.13123 3.14198C8.13123 3.59373 8.49263 3.95514 8.94438 3.95514C9.39613 3.95514 9.75753 3.59373 9.75753 3.14198C9.75753 2.69023 9.39613 2.32883 8.94438 2.32883Z" fill="white"/>
<path fill-rule="evenodd" clip-rule="evenodd" d="M0.813154 3.59143C1.05997 3.59143 1.26344 3.38675 1.26344 3.14198C1.26344 2.89721 1.05997 2.69254 0.813154 2.69254C0.566339 2.69254 0.36287 2.89721 0.36287 3.14198C0.36287 3.38675 0.566339 3.59143 0.813154 3.59143ZM0.813154 2.32883C0.361402 2.32883 0 2.69023 0 3.14198C0 3.59373 0.361402 3.95514 0.813154 3.95514C1.26491 3.95514 1.62631 3.59373 1.62631 3.14198C1.62631 2.69023 1.26491 2.32883 0.813154 2.32883Z" fill="white"/>
<path fill-rule="evenodd" clip-rule="evenodd" d="M187.554 19.4083C187.015 19.4083 186.567 19.8739 186.567 20.4579C186.567 21.0226 187.025 21.5074 187.554 21.5074C188.084 21.5074 188.541 21.0226 188.541 20.4579C188.541 19.8932 188.084 19.4083 187.554 19.4083ZM187.554 18.1539C186.372 18.1539 185.386 19.1713 185.386 20.4579C185.386 21.7146 186.372 22.7618 187.554 22.7618C188.737 22.7618 189.723 21.7146 189.723 20.4579C189.723 19.2012 188.737 18.1539 187.554 18.1539Z" fill="white"/>
<path fill-rule="evenodd" clip-rule="evenodd" d="M179.558 1.4607C178.687 1.4607 177.969 2.13094 177.969 2.97507C177.969 3.79886 178.695 4.48944 179.558 4.48944C180.421 4.48944 181.147 3.79885 181.147 2.97507C181.147 2.1513 180.421 1.4607 179.558 1.4607ZM179.558 0.264557C178 0.264557 176.712 1.46289 176.712 2.97507C176.712 4.45872 178 5.68559 179.558 5.68559C181.116 5.68559 182.404 4.45872 182.404 2.97507C182.404 1.49142 181.116 0.264557 179.558 0.264557Z" fill="white"/>
<path fill-rule="evenodd" clip-rule="evenodd" d="M171.427 19.8685C171.096 19.8685 170.838 20.1259 170.838 20.4579C170.838 20.7899 171.096 21.0473 171.427 21.0473C171.757 21.0473 172.015 20.7899 172.015 20.4579C172.015 20.1258 171.757 19.8685 171.427 19.8685ZM171.427 18.696C170.448 18.696 169.665 19.4791 169.665 20.4579C169.665 21.4367 170.448 22.2197 171.427 22.2197C172.405 22.2197 173.188 21.4367 173.188 20.4579C173.188 19.4791 172.405 18.696 171.427 18.696Z" fill="white"/>
<path fill-rule="evenodd" clip-rule="evenodd" d="M171.427 35.9021C170.216 35.9021 169.253 36.8637 169.253 38.0762C169.253 39.2888 170.216 40.2503 171.427 40.2503C172.637 40.2503 173.6 39.2888 173.6 38.0762C173.6 36.8637 172.637 35.9021 171.427 35.9021ZM171.427 34.6881C169.544 34.6881 168.038 36.1939 168.038 38.0762C168.038 39.9585 169.544 41.4644 171.427 41.4644C173.309 41.4644 174.815 39.9585 174.815 38.0762C174.815 36.1939 173.309 34.6881 171.427 34.6881Z" fill="white"/>
<path fill-rule="evenodd" clip-rule="evenodd" d="M155.299 37.8354C155.181 37.8354 155.081 37.9471 155.081 38.0762C155.081 38.2052 155.181 38.317 155.299 38.317C155.417 38.317 155.517 38.2052 155.517 38.0762C155.517 37.9471 155.417 37.8354 155.299 37.8354ZM155.299 36.5854C154.567 36.5854 153.944 37.2413 153.944 38.0762C153.944 38.911 154.567 39.567 155.299 39.567C156.031 39.567 156.654 38.911 156.654 38.0762C156.654 37.2413 156.031 36.5854 155.299 36.5854Z" fill="white"/>
<path fill-rule="evenodd" clip-rule="evenodd" d="M147.303 2.54008C146.996 2.54008 146.733 2.80163 146.733 3.11059C146.733 3.41954 146.996 3.6811 147.303 3.6811C147.61 3.6811 147.873 3.41955 147.873 3.11059C147.873 2.80162 147.61 2.54008 147.303 2.54008ZM147.303 1.34875C146.337 1.34875 145.541 2.14442 145.541 3.11059C145.541 4.07676 146.337 4.87242 147.303 4.87242C148.269 4.87242 149.065 4.07676 149.065 3.11059C149.065 2.14442 148.269 1.34875 147.303 1.34875Z" fill="white"/>
<path fill-rule="evenodd" clip-rule="evenodd" d="M147.303 19.0824C146.536 19.0824 145.928 19.689 145.928 20.4579C145.928 21.2267 146.536 21.8334 147.303 21.8334C148.07 21.8334 148.678 21.2267 148.678 20.4579C148.678 19.689 148.07 19.0824 147.303 19.0824ZM147.303 17.8829C145.872 17.8829 144.728 19.0273 144.728 20.4579C144.728 21.8884 145.872 23.0329 147.303 23.0329C148.734 23.0329 149.878 21.8884 149.878 20.4579C149.878 19.0273 148.734 17.8829 147.303 17.8829Z" fill="white"/>
<path fill-rule="evenodd" clip-rule="evenodd" d="M139.172 2.86976C139.042 2.86976 138.932 2.98149 138.932 3.11056C138.932 3.23964 139.042 3.35137 139.172 3.35137C139.302 3.35137 139.412 3.23964 139.412 3.11056C139.412 2.98149 139.302 2.86976 139.172 2.86976ZM139.172 1.61978C138.367 1.61978 137.681 2.27573 137.681 3.11056C137.681 3.9454 138.367 4.60135 139.172 4.60135C139.977 4.60135 140.663 3.9454 140.663 3.11056C140.663 2.27573 139.977 1.61978 139.172 1.61978Z" fill="white"/>
<path fill-rule="evenodd" clip-rule="evenodd" d="M139.172 19.3613C138.573 19.3613 138.076 19.8568 138.076 20.4579C138.076 21.059 138.573 21.5544 139.172 21.5544C139.771 21.5544 140.267 21.059 140.267 20.4579C140.267 19.8568 139.771 19.3613 139.172 19.3613ZM139.172 18.1539C137.905 18.1539 136.868 19.1907 136.868 20.4579C136.868 21.725 137.905 22.7618 139.172 22.7618C140.439 22.7618 141.476 21.725 141.476 20.4579C141.476 19.1907 140.439 18.1539 139.172 18.1539Z" fill="white"/>
<path fill-rule="evenodd" clip-rule="evenodd" d="M139.172 37.6008C139.009 37.6008 138.861 37.7605 138.861 37.9407C138.861 38.1209 139.009 38.2806 139.172 38.2806C139.335 38.2806 139.483 38.1209 139.483 37.9407C139.483 37.7605 139.335 37.6008 139.172 37.6008ZM139.172 36.3144C138.356 36.3144 137.681 37.0508 137.681 37.9407C137.681 38.8306 138.356 39.567 139.172 39.567C139.988 39.567 140.663 38.8306 140.663 37.9407C140.663 37.0508 139.988 36.3144 139.172 36.3144Z" fill="white"/>
<path fill-rule="evenodd" clip-rule="evenodd" d="M131.122 3.24609C131.154 3.18839 131.176 3.09543 131.176 2.97504H130.905C130.953 3.03586 130.999 3.09201 131.04 3.14385C131.069 3.17998 131.096 3.21402 131.122 3.24609Z" fill="white"/>
<path fill-rule="evenodd" clip-rule="evenodd" d="M123.03 2.5884C122.816 2.5884 122.647 2.75695 122.647 2.97506C122.647 3.19302 122.816 3.36173 123.03 3.36173C123.273 3.36173 123.441 3.16381 123.441 2.97506C123.441 2.89696 123.408 2.80166 123.321 2.71628C123.233 2.62977 123.125 2.5884 123.03 2.5884ZM123.03 1.34875C122.151 1.34875 121.418 2.05842 121.418 2.97506C121.418 3.86214 122.121 4.60137 123.03 4.60137C123.938 4.60137 124.671 3.86214 124.671 2.97506C124.671 2.08799 123.909 1.34875 123.03 1.34875Z" fill="white"/>
<path fill-rule="evenodd" clip-rule="evenodd" d="M122.908 19.0824C122.141 19.0824 121.533 19.689 121.533 20.4579C121.533 21.2267 122.141 21.8334 122.908 21.8334C123.675 21.8334 124.283 21.2267 124.283 20.4579C124.283 19.689 123.675 19.0824 122.908 19.0824ZM122.908 17.8829C121.478 17.8829 120.333 19.0273 120.333 20.4579C120.333 21.8884 121.478 23.0329 122.908 23.0329C124.339 23.0329 125.483 21.8884 125.483 20.4579C125.483 19.0273 124.339 17.8829 122.908 17.8829Z" fill="white"/>
<path fill-rule="evenodd" clip-rule="evenodd" d="M123.076 38.2598C123.114 38.2214 123.148 38.1578 123.148 38.0762C123.148 38.019 123.125 37.9538 123.075 37.9017C123.021 37.8459 122.95 37.8197 122.894 37.8197C122.799 37.8197 122.669 37.9055 122.669 38.0762C122.669 38.1827 122.716 38.2493 122.744 38.277C122.771 38.303 122.819 38.3328 122.894 38.3328C122.976 38.3328 123.039 38.2982 123.076 38.2598ZM122.894 37.1276C122.385 37.1276 121.96 37.5588 121.96 38.0762C121.96 38.5937 122.356 39.0249 122.894 39.0249C123.433 39.0249 123.857 38.5937 123.857 38.0762C123.857 37.5588 123.404 37.1276 122.894 37.1276Z" fill="white"/>
<path fill-rule="evenodd" clip-rule="evenodd" d="M114.913 18.5288C113.795 18.5288 112.901 19.3847 112.901 20.4579C112.901 21.5311 113.795 22.387 114.913 22.387C116.031 22.387 116.925 21.5311 116.925 20.4579C116.925 19.3846 116.031 18.5288 114.913 18.5288ZM114.913 17.3408C113.109 17.3408 111.66 18.7293 111.66 20.4579C111.66 22.1864 113.109 23.5749 114.913 23.5749C116.716 23.5749 118.165 22.1864 118.165 20.4579C118.165 18.7293 116.716 17.3408 114.913 17.3408Z" fill="white"/>
<path fill-rule="evenodd" clip-rule="evenodd" d="M114.913 37.8354C114.795 37.8354 114.694 37.9471 114.694 38.0762C114.694 38.2052 114.795 38.317 114.913 38.317C115.03 38.317 115.131 38.2052 115.131 38.0762C115.131 37.9471 115.03 37.8354 114.913 37.8354ZM114.913 36.5854C114.181 36.5854 113.557 37.2413 113.557 38.0762C113.557 38.911 114.181 39.567 114.913 39.567C115.644 39.567 116.268 38.911 116.268 38.0762C116.268 37.2413 115.644 36.5854 114.913 36.5854Z" fill="white"/>
<path fill-rule="evenodd" clip-rule="evenodd" d="M106.781 2.26486C106.39 2.26486 106.072 2.58215 106.072 2.975C106.072 3.36785 106.39 3.68514 106.781 3.68514C107.172 3.68514 107.49 3.36786 107.49 2.975C107.49 2.58214 107.172 2.26486 106.781 2.26486ZM106.781 1.07764C105.733 1.07764 104.884 1.9272 104.884 2.975C104.884 4.02279 105.733 4.87236 106.781 4.87236C107.829 4.87236 108.678 4.02279 108.678 2.975C108.678 1.9272 107.829 1.07764 106.781 1.07764Z" fill="white"/>
<path fill-rule="evenodd" clip-rule="evenodd" d="M106.916 18.5621C105.873 18.5621 105.021 19.4128 105.021 20.4578C105.021 21.5029 105.873 22.3536 106.916 22.3536C107.959 22.3536 108.811 21.5029 108.811 20.4578C108.811 19.4128 107.959 18.5621 106.916 18.5621ZM106.916 17.3408C105.198 17.3408 103.799 18.7391 103.799 20.4578C103.799 22.1766 105.198 23.5749 106.916 23.5749C108.635 23.5749 110.033 22.1766 110.033 20.4578C110.033 18.7391 108.635 17.3408 106.916 17.3408Z" fill="white"/>
<path fill-rule="evenodd" clip-rule="evenodd" d="M106.781 38.6899C107.057 38.6899 107.273 38.419 107.273 38.0762C107.273 37.7335 107.057 37.4626 106.781 37.4626C106.505 37.4626 106.289 37.7335 106.289 38.0762C106.289 38.419 106.505 38.6899 106.781 38.6899ZM106.781 37.3986C106.485 37.3986 106.239 37.7066 106.239 38.0762C106.239 38.4458 106.485 38.7538 106.781 38.7538C107.077 38.7538 107.323 38.4458 107.323 38.0762C107.323 37.7066 107.077 37.3986 106.781 37.3986Z" fill="white"/>
<path fill-rule="evenodd" clip-rule="evenodd" d="M98.7848 2.02932C98.1881 2.02932 97.7043 2.52096 97.7043 3.11061C97.7043 3.71933 98.178 4.1919 98.7848 4.1919C99.3915 4.1919 99.8653 3.71933 99.8653 3.11061C99.8653 2.50189 99.3915 2.02932 98.7848 2.02932ZM98.7848 0.806671C97.5016 0.806671 96.4808 1.85657 96.4808 3.11061C96.4808 4.39381 97.5016 5.41455 98.7848 5.41455C100.068 5.41455 101.089 4.39381 101.089 3.11061C101.089 1.8274 100.068 0.806671 98.7848 0.806671Z" fill="white"/>
<path fill-rule="evenodd" clip-rule="evenodd" d="M98.7847 18.0359C97.4396 18.0359 96.3635 19.1272 96.3635 20.4579C96.3635 21.8116 97.4331 22.88 98.7847 22.88C100.136 22.88 101.206 21.8116 101.206 20.4579C101.206 19.1042 100.136 18.0359 98.7847 18.0359ZM98.7847 16.7987C96.7486 16.7987 95.1255 18.4512 95.1255 20.4579C95.1255 22.4941 96.7486 24.1171 98.7847 24.1171C100.821 24.1171 102.444 22.4941 102.444 20.4579C102.444 18.4217 100.821 16.7987 98.7847 16.7987Z" fill="white"/>
<path fill-rule="evenodd" clip-rule="evenodd" d="M98.6493 38.3451C98.8588 38.3451 99.0544 38.1759 99.0544 37.9407C99.0544 37.8033 98.9966 37.7055 98.9411 37.65C98.8857 37.5946 98.7874 37.5364 98.6493 37.5364C98.5111 37.5364 98.4129 37.5946 98.3574 37.65C98.302 37.7055 98.2441 37.8033 98.2441 37.9407C98.2441 38.0781 98.302 38.176 98.3574 38.2314C98.4129 38.2869 98.5111 38.3451 98.6493 38.3451ZM98.6493 37.1276C98.2137 37.1276 97.8361 37.4761 97.8361 37.9407C97.8361 38.3763 98.2137 38.7539 98.6493 38.7539C99.0849 38.7539 99.4624 38.3763 99.4624 37.9407C99.4624 37.5051 99.0849 37.1276 98.6493 37.1276Z" fill="white"/>
<path fill-rule="evenodd" clip-rule="evenodd" d="M90.639 3.11279C90.6391 3.11279 90.6392 3.11279 90.6393 3.11279C90.6432 3.11279 90.6464 3.11257 90.6492 3.11223C90.6478 3.11151 90.6464 3.11087 90.6451 3.11032C90.6441 3.10988 90.6432 3.10954 90.6424 3.10927C90.6419 3.10971 90.6413 3.11023 90.6407 3.11084C90.6401 3.11154 90.6395 3.1122 90.639 3.11279ZM90.6393 1.89084C89.9792 1.89084 89.434 2.44262 89.434 3.11057C89.434 3.77852 89.9505 4.3303 90.6393 4.3303C91.3281 4.3303 91.8734 3.77852 91.8734 3.11057C91.8734 2.44262 91.2994 1.89084 90.6393 1.89084Z" fill="white"/>
<path fill-rule="evenodd" clip-rule="evenodd" d="M90.7353 38.2118C90.7668 38.1541 90.7888 38.0611 90.7888 37.9407H90.5178C90.5666 38.0015 90.6117 38.0577 90.6533 38.1095C90.6823 38.1457 90.7096 38.1797 90.7353 38.2118Z" fill="white"/>
<path fill-rule="evenodd" clip-rule="evenodd" d="M82.5218 1.72478C81.7995 1.72478 81.2029 2.2785 81.2029 2.97505C81.2029 3.65222 81.8091 4.22532 82.5218 4.22532C83.2346 4.22532 83.8407 3.65221 83.8407 2.97505C83.8407 2.29788 83.2346 1.72478 82.5218 1.72478ZM82.5218 0.535583C81.1146 0.535583 79.9468 1.61349 79.9468 2.97505C79.9468 4.30824 81.1146 5.41451 82.5218 5.41451C83.9291 5.41451 85.0968 4.30824 85.0968 2.97505C85.0968 1.64185 83.9291 0.535583 82.5218 0.535583Z" fill="white"/>
<path fill-rule="evenodd" clip-rule="evenodd" d="M82.5215 18.5621C81.4785 18.5621 80.6265 19.4128 80.6265 20.4578C80.6265 21.5029 81.4785 22.3536 82.5215 22.3536C83.5646 22.3536 84.4165 21.5029 84.4165 20.4578C84.4165 19.4128 83.5646 18.5621 82.5215 18.5621ZM82.5215 17.3408C80.8027 17.3408 79.4044 18.7391 79.4044 20.4578C79.4044 22.1766 80.8027 23.5749 82.5215 23.5749C84.2403 23.5749 85.6386 22.1766 85.6386 20.4578C85.6386 18.7391 84.2403 17.3408 82.5215 17.3408Z" fill="white"/>
<path fill-rule="evenodd" clip-rule="evenodd" d="M82.6572 35.3792C81.251 35.3792 80.0965 36.5325 80.0965 37.9407C80.0965 39.349 81.251 40.5022 82.6572 40.5022C84.0635 40.5022 85.2179 39.349 85.2179 37.9407C85.2179 36.5325 84.0635 35.3792 82.6572 35.3792ZM82.6572 34.146C80.5686 34.146 78.8625 35.8521 78.8625 37.9407C78.8625 40.0293 80.5686 41.7354 82.6572 41.7354C84.7458 41.7354 86.4519 40.0293 86.4519 37.9407C86.4519 35.8521 84.7458 34.146 82.6572 34.146Z" fill="white"/>
<path fill-rule="evenodd" clip-rule="evenodd" d="M74.6899 3.24609C74.7528 3.18839 74.7968 3.09543 74.7968 2.97504H74.2547C74.3524 3.03586 74.4425 3.09202 74.5258 3.14386C74.5838 3.17999 74.6384 3.21402 74.6899 3.24609Z" fill="white"/>
<path fill-rule="evenodd" clip-rule="evenodd" d="M74.4919 38.2118C74.5135 38.1445 74.5258 38.0514 74.5258 37.9407H74.2547C74.302 37.9947 74.3471 38.0463 74.3902 38.0956C74.4254 38.1358 74.4593 38.1745 74.4919 38.2118Z" fill="white"/>
<path d="M32.7171 19.233H186.132V21.9435H32.7171V19.233Z" fill="url(#paint0_linear_3107_1866)"/>
<path d="M187.554 30.6223C193.243 30.6223 197.854 26.0109 197.854 20.3224C197.854 14.6339 193.243 10.0224 187.554 10.0224C181.866 10.0224 177.254 14.6339 177.254 20.3224C177.254 26.0109 181.866 30.6223 187.554 30.6223Z" fill="url(#paint1_radial_3107_1866)" style="mix-blend-mode:color-dodge"/>
<defs>
<linearGradient id="paint0_linear_3107_1866" x1="188.784" y1="18.696" x2="33.9124" y2="18.696" gradientUnits="userSpaceOnUse">
<stop stop-color="white"/>
<stop offset="0.776042" stop-color="white" stop-opacity="0"/>
</linearGradient>
<radialGradient id="paint1_radial_3107_1866" cx="0" cy="0" r="1" gradientUnits="userSpaceOnUse" gradientTransform="translate(187.554 20.3224) scale(19.5272)">
<stop stop-color="#E9DDFF"/>
<stop offset="0.432292" stop-color="white" stop-opacity="0"/>
</radialGradient>
</defs>
</svg>
