<svg width="72" height="72" viewBox="0 0 72 72" fill="none" xmlns="http://www.w3.org/2000/svg">
<g id="Group 21299">
<g id="Rectangle 6239" filter="url(#filter0_b_3088_12618)">
<rect width="71.4847" height="71.4847" rx="13.8357" fill="white" fill-opacity="0.87"/>
</g>
<g id="Group 21294">
<path id="Vector" d="M11.1781 35.1766C11.3109 35.2652 11.4687 35.3086 11.6281 35.3006C11.7875 35.2926 11.9402 35.2334 12.0634 35.132C18.1491 30.1622 26.4742 23.3623 35.402 23.3623C44.3297 23.3623 52.6548 30.1622 58.7405 35.132C58.8621 35.2487 59.0197 35.3208 59.1874 35.3363C59.3553 35.3519 59.5234 35.31 59.6643 35.2175C59.8052 35.125 59.9105 34.9874 59.963 34.8273C60.0155 34.6671 60.0121 34.4939 59.9532 34.336C56.0176 21.5395 46.8518 13.8989 35.402 13.8989C32.1747 13.8788 28.9785 14.5298 26.0161 15.8105C23.0538 17.0912 20.39 18.9738 18.1938 21.3387C18.2756 21.0719 18.3027 20.7914 18.2733 20.514C18.2438 20.2365 18.1586 19.9679 18.0226 19.7242C18.2533 19.4787 18.4839 19.2406 18.7145 19.0175C18.8417 18.8788 18.9115 18.6972 18.9101 18.5091C18.9086 18.321 18.8361 18.1405 18.707 18.0038C18.5777 17.867 18.4016 17.7844 18.2139 17.7723C18.0262 17.7602 17.841 17.8197 17.6953 17.9387C17.4423 18.1768 17.1894 18.4372 16.9513 18.6827C16.6475 18.5533 16.3189 18.4929 15.9889 18.5059C15.659 18.5189 15.3361 18.6049 15.0434 18.7578C14.7507 18.9107 14.4956 19.1266 14.2965 19.39C14.0973 19.6533 13.9591 19.9576 13.8918 20.2809C13.8245 20.6041 13.8297 20.9383 13.907 21.2593C13.9844 21.5803 14.1321 21.8801 14.3394 22.1371C14.5466 22.3941 14.8084 22.602 15.1057 22.7457C15.4029 22.8893 15.7284 22.9653 16.0585 22.968C16.3555 22.9691 16.6495 22.9083 16.9216 22.7894C14.165 26.2059 12.1027 30.1283 10.8507 34.336C10.8057 34.4926 10.8133 34.6597 10.8724 34.8116C10.9316 34.9634 11.039 35.0917 11.1781 35.1766ZM16.6314 21.1899C16.5076 21.342 16.3287 21.4391 16.1336 21.46C15.9385 21.4809 15.7431 21.4239 15.5898 21.3015C15.5456 21.272 15.5077 21.2341 15.4782 21.1899C15.3748 21.0609 15.3172 20.9013 15.3146 20.736C15.3146 20.5387 15.393 20.3495 15.5325 20.21C15.672 20.0704 15.8612 19.9921 16.0585 19.9921C16.2559 19.9921 16.4451 20.0704 16.5846 20.21C16.7242 20.3495 16.8025 20.5387 16.8025 20.736C16.8065 20.915 16.7457 21.0893 16.6314 21.2271V21.1899ZM35.402 15.3868C45.3936 15.3868 53.5699 21.6735 57.6618 32.3421C51.6355 27.4988 43.8684 21.8743 35.402 21.8743C26.9355 21.8743 19.1758 27.4988 13.1422 32.3421C17.234 21.6735 25.4103 15.3868 35.402 15.3868Z" fill="#7D63FF"/>
<path id="Vector_2" d="M59.6254 36.0568C59.4926 35.9682 59.3348 35.9248 59.1753 35.9328C59.0159 35.9409 58.8633 36 58.74 36.1014C52.6543 41.0637 44.3292 47.8711 35.4015 47.8711C26.4737 47.8711 18.1486 41.0637 12.0629 36.1014C11.9106 35.9781 11.7157 35.9198 11.5207 35.9394C11.3257 35.9589 11.1462 36.0545 11.0213 36.2056C10.9423 36.3002 10.888 36.4129 10.8633 36.5337C10.8386 36.6545 10.8444 36.7795 10.88 36.8975C14.8156 49.6939 23.9814 57.3345 35.4312 57.3345C38.6585 57.3546 41.8547 56.7036 44.8171 55.4229C47.7795 54.1422 50.4433 52.2596 52.6394 49.8948C52.5668 50.088 52.5241 50.2912 52.5129 50.4974C52.5127 50.8536 52.6023 51.2042 52.7733 51.5166L52.0814 52.2606C52.0023 52.3253 51.9373 52.4056 51.8906 52.4964C51.8439 52.5874 51.8164 52.6869 51.8098 52.7889C51.8033 52.8909 51.8178 52.9931 51.8524 53.0892C51.8872 53.1854 51.9413 53.2733 52.0115 53.3476C52.0817 53.4219 52.1664 53.4809 52.2604 53.521C52.3544 53.5611 52.4557 53.5814 52.5579 53.5806C52.6601 53.5798 52.761 53.558 52.8544 53.5165C52.9478 53.475 53.0316 53.4147 53.1007 53.3394C53.3611 53.0939 53.6066 52.8335 53.8447 52.5954C54.117 52.7359 54.4153 52.8187 54.7211 52.8389C55.0268 52.859 55.3334 52.816 55.6219 52.7124C55.9102 52.6089 56.1742 52.4471 56.3974 52.2372C56.6205 52.0271 56.798 51.7734 56.9188 51.4919C57.0397 51.2103 57.1012 50.9069 57.0996 50.6004C57.0981 50.294 57.0335 49.9913 56.9098 49.7108C56.7861 49.4305 56.606 49.1787 56.3807 48.971C56.1555 48.7632 55.8899 48.6041 55.6005 48.5035C55.3341 48.3677 55.0431 48.2867 54.7449 48.2654C54.4475 48.2675 54.1537 48.3308 53.8819 48.4514C56.6411 45.0339 58.7037 41.1085 59.9527 36.8975C59.9978 36.7409 59.9901 36.5738 59.931 36.4218C59.8719 36.27 59.7645 36.1417 59.6254 36.0568ZM54.172 50.0436C54.2844 49.9081 54.4412 49.8169 54.6145 49.7861C54.7877 49.7553 54.9664 49.787 55.1185 49.8754C55.2706 49.9639 55.3865 50.1034 55.4455 50.2692C55.5045 50.435 55.5028 50.6164 55.4407 50.7811C55.3786 50.9458 55.2602 51.0831 55.1064 51.1687C54.9526 51.2543 54.7734 51.2826 54.6008 51.2486C54.4281 51.2146 54.273 51.1204 54.1632 50.9829C54.0534 50.8453 53.9959 50.6733 54.0009 50.4974C54.0036 50.3321 54.0612 50.1725 54.1646 50.0436H54.172ZM35.4015 55.8466C25.4098 55.8466 17.2335 49.56 13.1417 38.8913C19.1679 43.7346 26.935 49.3591 35.4015 49.3591C43.8679 49.3591 51.635 43.7346 57.6613 38.8913C53.562 49.5674 45.3931 55.8466 35.4015 55.8466Z" fill="#7D63FF"/>
<path id="Vector_3" d="M44.1745 43.7089C44.2832 43.71 44.3909 43.6872 44.4898 43.6423C44.5888 43.5973 44.6767 43.5311 44.7474 43.4485C45.6176 42.401 46.3089 41.2171 46.7934 39.9444C46.8615 39.7673 46.8595 39.5708 46.7875 39.3952C46.7156 39.2195 46.5793 39.078 46.4065 38.9995L44.2415 38.0175L46.6074 38.2555H46.6818C46.859 38.2581 47.0313 38.1973 47.1677 38.0841C47.3041 37.971 47.3956 37.8127 47.4257 37.638C47.6713 36.2977 47.6713 34.9238 47.4257 33.5834C47.3946 33.3965 47.2933 33.2287 47.1426 33.114C46.9919 32.9992 46.8032 32.9463 46.6148 32.9658L44.8813 33.1444L46.4883 32.4451C46.6603 32.3695 46.7974 32.2315 46.8719 32.0591C46.9464 31.8866 46.9529 31.6922 46.8901 31.5151C46.4338 30.2335 45.7675 29.0368 44.9185 27.9738C44.7998 27.8255 44.6288 27.7282 44.4407 27.702C44.2526 27.6757 44.0615 27.7224 43.9067 27.8324L41.9575 29.2013L43.3711 27.2744C43.4814 27.1229 43.5305 26.9352 43.5084 26.749C43.4864 26.5627 43.3948 26.3917 43.252 26.2701C42.2067 25.395 41.0222 24.701 39.7479 24.2167C39.5716 24.1507 39.3769 24.1539 39.203 24.2257C39.0291 24.2975 38.8888 24.4325 38.8105 24.6035L37.821 26.7685L38.0591 24.4027C38.0769 24.2166 38.024 24.0306 37.911 23.8817C37.7979 23.7329 37.633 23.632 37.449 23.5992C36.106 23.3537 34.7298 23.3537 33.3869 23.5992C33.2028 23.632 33.0379 23.7329 32.9248 23.8817C32.8118 24.0306 32.759 24.2166 32.7768 24.4027L32.9554 26.1436L32.256 24.5366C32.1804 24.3646 32.0424 24.2275 31.87 24.153C31.6975 24.0785 31.5031 24.072 31.3261 24.1348C30.0431 24.5882 28.8459 25.2547 27.7847 26.1064C27.6385 26.2249 27.5426 26.3944 27.5164 26.5808C27.4901 26.7672 27.5355 26.9565 27.6434 27.1107L29.0123 29.0674L27.0854 27.6539C26.9332 27.5413 26.7439 27.4909 26.5559 27.513C26.3679 27.5352 26.1954 27.6281 26.0736 27.7729C25.2033 28.8204 24.5121 30.0044 24.0276 31.277C23.9616 31.4533 23.9648 31.648 24.0366 31.8219C24.1084 31.9959 24.2434 32.1361 24.4145 32.2144L26.5795 33.2039L24.2136 32.9658C24.0253 32.9463 23.8364 32.9992 23.6858 33.114C23.5351 33.2287 23.4339 33.3965 23.4027 33.5834C23.1646 34.922 23.1646 36.292 23.4027 37.6306C23.4312 37.8067 23.522 37.9666 23.6586 38.0813C23.7951 38.196 23.9683 38.2578 24.1467 38.2555H24.2211L25.962 38.077L24.355 38.7689C24.1799 38.8432 24.0398 38.9818 23.9637 39.1561C23.8876 39.3305 23.8812 39.5274 23.9458 39.7063C24.4018 40.9896 25.0708 42.1868 25.9248 43.2476C26.0432 43.3939 26.2128 43.4898 26.3991 43.516C26.5855 43.5422 26.7749 43.4969 26.9292 43.389L28.8784 42.0201L27.4425 43.947C27.3329 44.0995 27.2851 44.2877 27.3086 44.474C27.332 44.6603 27.425 44.8308 27.569 44.9513C28.6105 45.828 29.7927 46.5222 31.0657 47.0047C31.1519 47.034 31.2424 47.0491 31.3335 47.0493C31.4757 47.0497 31.6152 47.0092 31.7352 46.9328C31.8552 46.8563 31.9507 46.747 32.0105 46.6178L33 44.4529L32.7545 46.8187C32.7369 47.0059 32.7907 47.1928 32.9053 47.3419C33.0198 47.491 33.1866 47.5911 33.372 47.6222C34.7124 47.8676 36.0862 47.8676 37.4267 47.6222C37.6121 47.5911 37.7788 47.491 37.8934 47.3419C38.0079 47.1928 38.0618 47.0059 38.0442 46.8187L37.8656 45.0778L38.5575 46.6848C38.6156 46.8179 38.7113 46.931 38.8329 47.0104C38.9546 47.0897 39.0968 47.1317 39.242 47.1312C39.3258 47.1315 39.4091 47.1164 39.4875 47.0865C40.7724 46.6344 41.9703 45.965 43.0288 45.1076C43.175 44.9891 43.2709 44.8196 43.2972 44.6332C43.3234 44.4468 43.278 44.2575 43.1702 44.1032L41.8013 42.154L43.7282 43.5675C43.8557 43.6657 44.0137 43.7157 44.1745 43.7089ZM44.0332 41.9382L41.5037 40.0783C41.7966 39.6637 42.0459 39.2199 42.2476 38.754L45.1343 40.0783C44.8301 40.7334 44.4613 41.3565 44.0332 41.9382ZM40.6109 35.6144C40.6109 36.6444 40.3054 37.6513 39.7332 38.5077C39.161 39.3642 38.3476 40.0317 37.3959 40.4259C36.4444 40.82 35.3973 40.9231 34.387 40.7222C33.3768 40.5212 32.4489 40.0253 31.7205 39.2969C30.9922 38.5686 30.4962 37.6406 30.2953 36.6305C30.0943 35.6202 30.1974 34.5731 30.5916 33.6215C30.9858 32.6699 31.6533 31.8565 32.5097 31.2843C33.3661 30.712 34.373 30.4066 35.4031 30.4066C36.7843 30.4066 38.1089 30.9553 39.0855 31.9319C40.0622 32.9086 40.6109 34.2332 40.6109 35.6144ZM46.1089 35.6144C46.1088 35.98 46.0864 36.3452 46.0419 36.7081L42.9395 36.3584C42.9395 36.1054 42.9395 35.845 42.9395 35.6144C42.9387 35.3658 42.9237 35.1174 42.8949 34.8704L46.0047 34.5505C46.061 34.9027 46.0958 35.258 46.1089 35.6144ZM44.1597 29.4766C44.5774 30.0741 44.9339 30.7122 45.2236 31.3812L42.3592 32.6385C42.1566 32.1684 41.9074 31.7198 41.6153 31.2993L44.1597 29.4766ZM39.8669 25.8906C40.5227 26.1905 41.146 26.557 41.7269 26.9843L39.8669 29.5138C39.4528 29.2096 39.0092 28.9479 38.5426 28.7326L39.8669 25.8906ZM36.519 24.9755L36.147 28.0854C35.6325 28.0334 35.114 28.0334 34.5996 28.0854L34.2797 24.9755C35.006 24.8859 35.7406 24.8859 36.4669 24.9755H36.519ZM31.1624 25.8013L32.4271 28.6657C31.957 28.8683 31.5084 29.1176 31.088 29.4096L29.2876 26.8429C29.8762 26.4321 30.5042 26.0806 31.1624 25.7939V25.8013ZM26.7729 29.2906L29.3024 31.1505C28.9981 31.5672 28.7364 32.0133 28.5213 32.4823L25.6793 31.1505C25.9781 30.4849 26.3446 29.8517 26.7729 29.2608V29.2906ZM24.6972 35.6144C24.6974 35.2513 24.7198 34.8886 24.7642 34.5282L27.874 34.8481C27.8147 35.3598 27.8147 35.8765 27.874 36.3881L24.7642 36.7081C24.7196 36.3452 24.6972 35.98 24.6972 35.6144ZM26.6464 41.7597C26.2286 41.1622 25.8722 40.5241 25.5826 39.8551L28.4543 38.5903C28.6538 39.062 28.9032 39.5109 29.1983 39.9295L26.6464 41.7597ZM30.9392 45.3456C30.2827 45.0441 29.6593 44.6751 29.0792 44.2445L30.9392 41.715C31.3502 42.0259 31.7943 42.2904 32.2635 42.5036L30.9392 45.3456ZM34.2945 46.2607L34.6591 43.1509C35.1735 43.203 35.692 43.203 36.2066 43.1509L36.5265 46.2607C35.7998 46.3463 35.0657 46.3463 34.3392 46.2607H34.2945ZM39.6214 45.4424L38.379 42.5706C38.8491 42.368 39.2977 42.1188 39.7181 41.8266L41.5185 44.3933C40.9296 44.8019 40.3016 45.1508 39.6437 45.4349L39.6214 45.4424Z" fill="#7D63FF"/>
<path id="Vector_4" d="M47.5216 43.2501C47.6733 43.2497 47.8213 43.203 47.9457 43.1162C50.4975 41.3232 54.5522 38.377 57.4909 36.2195C57.5696 36.1615 57.6361 36.0884 57.6866 36.0046C57.7371 35.9208 57.7706 35.8279 57.7851 35.7311C57.7996 35.6344 57.7948 35.5357 57.7712 35.4408C57.7475 35.3458 57.7054 35.2566 57.6471 35.1779C57.6029 35.1164 57.5503 35.0613 57.4909 35.0142C54.515 32.8493 50.4826 29.8957 47.9457 28.1176C47.8134 28.0229 47.6538 27.9741 47.4912 27.9788C47.3286 27.9835 47.1721 28.0413 47.0455 28.1435C46.9188 28.2455 46.8293 28.3864 46.7903 28.5442C46.7513 28.7022 46.7651 28.8685 46.8297 29.0178C47.728 31.1019 48.1913 33.3474 48.1913 35.6169C48.1913 37.8863 47.728 40.1318 46.8297 42.216C46.7529 42.3975 46.7513 42.6021 46.8252 42.7849C46.8992 42.9676 47.0426 43.1135 47.224 43.1906C47.3186 43.2288 47.4196 43.249 47.5216 43.2501ZM49.0096 30.6843C51.1224 32.1723 53.6669 34.0471 55.8021 35.6169C53.6743 37.1792 51.1299 39.0392 49.0096 40.5494C49.9197 37.3233 49.9145 33.9077 48.9947 30.6843H49.0096Z" fill="#7D63FF"/>
<path id="Vector_5" d="M23.9745 29.0179C24.0512 28.8364 24.0529 28.6318 23.9789 28.449C23.905 28.2663 23.7616 28.1204 23.5801 28.0433C23.4606 27.9889 23.3288 27.9672 23.1981 27.9802C23.0675 27.9933 22.9426 28.0407 22.8362 28.1177C20.2992 29.8958 16.2445 32.8494 13.2984 35.0144C13.2191 35.0719 13.1519 35.1445 13.1008 35.2281C13.0496 35.3115 13.0154 35.4044 13.0002 35.5012C12.985 35.598 12.989 35.6968 13.0121 35.792C13.0352 35.8872 13.0769 35.9769 13.1347 36.056C13.1796 36.1194 13.2349 36.1748 13.2984 36.2196C16.2371 38.3846 20.2992 41.3382 22.8362 43.1163C22.9684 43.211 23.128 43.2597 23.2907 43.2551C23.4532 43.2504 23.6098 43.1926 23.7364 43.0904C23.863 42.9883 23.9527 42.8475 23.9916 42.6896C24.0305 42.5317 24.0167 42.3653 23.9521 42.2161C23.0539 40.132 22.5906 37.8864 22.5906 35.617C22.5906 33.3476 23.0539 31.102 23.9521 29.0179H23.9745ZM21.8095 40.5496C19.6966 39.0616 17.1522 37.1868 15.017 35.617C17.1522 34.0472 19.704 32.1947 21.8095 30.6919C20.8944 33.9141 20.8944 37.3274 21.8095 40.5496Z" fill="#7D63FF"/>
<path id="Vector_6" d="M52.7217 19.607C52.8588 19.749 53.0467 19.8309 53.2442 19.8343C53.4416 19.8378 53.6323 19.7627 53.7744 19.6256C53.9164 19.4885 53.9982 19.3005 54.0017 19.1031C54.0052 18.9057 53.9301 18.7149 53.793 18.5729C53.4433 18.2158 53.049 17.8289 52.6845 17.5016C52.5384 17.3684 52.3455 17.2986 52.1481 17.3077C51.9506 17.3167 51.7649 17.4039 51.6317 17.5499C51.4985 17.6959 51.4288 17.8889 51.4379 18.0863C51.4469 18.2837 51.5341 18.4695 51.6801 18.6026C52.0372 18.9225 52.3869 19.2499 52.7217 19.607Z" fill="#7D63FF"/>
<path id="Vector_7" d="M36.5248 13.0061C37.4622 13.0061 38.3922 13.1029 39.2849 13.2145H39.3742C39.5715 13.2263 39.7654 13.1592 39.9133 13.0281C40.0612 12.897 40.1509 12.7124 40.1628 12.5151C40.1747 12.3178 40.1076 12.1239 39.9765 11.976C39.8453 11.8281 39.6608 11.7383 39.4635 11.7265C38.5261 11.6149 37.5515 11.5405 36.5694 11.5107C36.372 11.5107 36.1828 11.5891 36.0433 11.7287C35.9038 11.8682 35.8254 12.0574 35.8254 12.2547C35.8254 12.452 35.9038 12.6413 36.0433 12.7808C36.1828 12.9203 36.372 12.9987 36.5694 12.9987L36.5248 13.0061Z" fill="#7D63FF"/>
<path id="Vector_8" d="M42.0155 13.6746C42.9097 13.8704 43.7916 14.1188 44.6566 14.4185C44.7354 14.4472 44.8183 14.4622 44.9021 14.4632C45.081 14.4684 45.2556 14.409 45.3942 14.2959C45.5328 14.1828 45.6259 14.0236 45.6566 13.8473C45.6874 13.6711 45.6536 13.4898 45.5615 13.3364C45.4694 13.1831 45.3251 13.068 45.1551 13.0124C44.2333 12.6927 43.2944 12.4245 42.3428 12.2089C42.2465 12.1883 42.1472 12.1869 42.0504 12.205C41.9536 12.2231 41.8613 12.2602 41.779 12.3141C41.6966 12.3681 41.6258 12.4379 41.5706 12.5195C41.5154 12.601 41.477 12.6927 41.4575 12.7892C41.4195 12.9784 41.4564 13.1748 41.5606 13.3372C41.6647 13.4996 41.8278 13.6153 42.0155 13.6597V13.6746Z" fill="#7D63FF"/>
<path id="Vector_9" d="M25.3818 14.6939C25.4737 14.6953 25.5649 14.6775 25.6497 14.6418C26.5077 14.314 27.3847 14.0383 28.2759 13.816C28.3772 13.8018 28.4744 13.7668 28.5615 13.7133C28.6487 13.6598 28.7239 13.589 28.7824 13.5051C28.841 13.4213 28.8816 13.3263 28.9018 13.2261C28.922 13.1259 28.9213 13.0225 28.8997 12.9225C28.8782 12.8226 28.8363 12.7281 28.7767 12.6451C28.717 12.562 28.6408 12.4922 28.553 12.4399C28.4651 12.3876 28.3674 12.354 28.266 12.3411C28.1645 12.3283 28.0616 12.3365 27.9634 12.3652C26.9954 12.6165 26.0438 12.9271 25.114 13.2952C24.9308 13.3666 24.7834 13.5077 24.7039 13.6876C24.6245 13.8674 24.6194 14.0714 24.6899 14.2549C24.7439 14.3947 24.8388 14.5149 24.9622 14.5999C25.0857 14.6849 25.2319 14.7306 25.3818 14.7311V14.6939Z" fill="#7D63FF"/>
<path id="Vector_10" d="M20.4033 17.3879C20.5583 17.3868 20.7092 17.3374 20.8348 17.2465C21.575 16.7 22.3504 16.2029 23.156 15.7586C23.3296 15.6648 23.4589 15.506 23.5155 15.3169C23.5719 15.1279 23.551 14.9241 23.4573 14.7505C23.3636 14.5768 23.2047 14.4475 23.0157 14.3911C22.8266 14.3345 22.6229 14.3554 22.4492 14.4492C21.5878 14.9153 20.7578 15.4372 19.9643 16.0115C19.8368 16.1038 19.7419 16.2343 19.6931 16.3839C19.6444 16.5337 19.6445 16.695 19.6933 16.8447C19.7421 16.9944 19.8371 17.1247 19.9647 17.217C20.0923 17.3093 20.2458 17.3587 20.4033 17.3581V17.3879Z" fill="#7D63FF"/>
<path id="Vector_11" d="M30.8712 13.2963H30.9754C31.8756 13.1698 32.7981 13.0805 33.7355 13.0359C33.8364 13.036 33.9363 13.0156 34.0291 12.9759C34.1219 12.9362 34.2056 12.8781 34.2752 12.805C34.3448 12.7319 34.3988 12.6455 34.4339 12.5509C34.469 12.4563 34.4846 12.3555 34.4795 12.2547C34.4795 12.0574 34.4011 11.8682 34.2616 11.7287C34.122 11.5891 33.9328 11.5107 33.7355 11.5107C32.7535 11.5628 31.7789 11.6521 30.8415 11.786C30.6442 11.7998 30.4604 11.8915 30.3307 12.0407C30.2009 12.19 30.1357 12.3848 30.1496 12.5821C30.1633 12.7794 30.255 12.9631 30.4043 13.0929C30.5536 13.2226 30.7483 13.2878 30.9456 13.274L30.8712 13.2963Z" fill="#7D63FF"/>
<path id="Vector_12" d="M47.18 15.5275C47.9962 15.9327 48.7841 16.3925 49.5385 16.9038C49.7012 17.0124 49.9003 17.0525 50.0925 17.0153C50.2847 16.9781 50.4544 16.8668 50.5651 16.7052C50.6757 16.5437 50.7182 16.3452 50.6834 16.1525C50.6485 15.9599 50.5392 15.7888 50.3791 15.6762C49.5708 15.1232 48.7257 14.6261 47.8496 14.1883C47.6762 14.1161 47.4819 14.1121 47.3056 14.1773C47.1294 14.2424 46.9845 14.3718 46.8996 14.5394C46.8149 14.7071 46.7967 14.9006 46.8487 15.0811C46.9007 15.2616 47.019 15.4157 47.18 15.5126V15.5275Z" fill="#7D63FF"/>
<path id="Vector_13" d="M18.0827 51.6249C18.0148 51.5546 17.9337 51.4983 17.844 51.4592C17.7544 51.4203 17.6579 51.3993 17.5601 51.3976C17.4624 51.3959 17.3653 51.4134 17.2743 51.4492C17.1833 51.4851 17.1003 51.5384 17.03 51.6063C16.9596 51.6742 16.9034 51.7553 16.8643 51.8449C16.8253 51.9347 16.8043 52.0311 16.8026 52.1288C16.8009 52.2266 16.8185 52.3238 16.8543 52.4147C16.89 52.5057 16.9435 52.5887 17.0114 52.6591C17.361 53.0162 17.7554 53.403 18.1199 53.723C18.1909 53.7953 18.276 53.8524 18.3699 53.8907C18.4638 53.929 18.5644 53.9478 18.6658 53.9458C18.7672 53.9437 18.8672 53.921 18.9594 53.879C19.0517 53.8369 19.1344 53.7764 19.2025 53.7013C19.2705 53.6261 19.3225 53.5378 19.3552 53.4418C19.3879 53.3458 19.4007 53.2441 19.3926 53.1431C19.3846 53.042 19.356 52.9436 19.3086 52.854C19.2611 52.7643 19.1958 52.6853 19.1168 52.6219C18.7672 52.302 18.4175 51.982 18.0827 51.6249Z" fill="#7D63FF"/>
<path id="Vector_14" d="M45.1548 56.5802C44.2989 56.9069 43.4244 57.1826 42.536 57.406C42.4405 57.4295 42.3505 57.4717 42.2714 57.5301C42.1923 57.5885 42.1255 57.6621 42.075 57.7466C42.0245 57.8309 41.9912 57.9245 41.9772 58.0219C41.9631 58.1192 41.9684 58.2184 41.9929 58.3137C42.0351 58.4774 42.1317 58.6218 42.267 58.7232C42.4022 58.8246 42.5679 58.877 42.7369 58.8717C42.7987 58.879 42.8611 58.879 42.9229 58.8717C43.8693 58.6343 44.801 58.3411 45.7128 57.9938C45.8973 57.9227 46.046 57.7813 46.1262 57.6007C46.2064 57.4199 46.2116 57.2148 46.1406 57.0303C46.0695 56.8458 45.9281 56.6971 45.7474 56.6169C45.5667 56.5366 45.3616 56.5315 45.1771 56.6025L45.1548 56.5802Z" fill="#7D63FF"/>
<path id="Vector_15" d="M39.8204 57.9368C38.9276 58.0633 38.0051 58.1526 37.0602 58.1972C36.8629 58.1972 36.6737 58.2756 36.5342 58.4151C36.3947 58.5547 36.3163 58.7439 36.3163 58.9412C36.3163 59.1385 36.3947 59.3278 36.5342 59.4672C36.6737 59.6068 36.8629 59.6852 37.0602 59.6852C38.0497 59.6405 39.0243 59.5438 39.9543 59.4173C40.052 59.4036 40.146 59.3709 40.2311 59.3208C40.3161 59.2708 40.3905 59.2046 40.4499 59.1258C40.5093 59.0471 40.5526 58.9573 40.5774 58.8619C40.6021 58.7664 40.6078 58.6669 40.5941 58.5692C40.5805 58.4715 40.5477 58.3775 40.4976 58.2924C40.4477 58.2074 40.3814 58.1331 40.3026 58.0736C40.2239 58.0143 40.1341 57.9709 40.0387 57.9462C39.9432 57.9214 39.8437 57.9157 39.746 57.9294L39.8204 57.9368Z" fill="#7D63FF"/>
<path id="Vector_16" d="M49.9699 53.9829C49.2279 54.5267 48.4527 55.0237 47.6487 55.4708C47.4767 55.5652 47.3489 55.7237 47.2931 55.9118C47.2374 56.0999 47.2582 56.3024 47.3511 56.4752C47.4441 56.6485 47.6021 56.7779 47.7903 56.8351C47.9785 56.8922 48.1817 56.8725 48.3554 56.7802C49.2169 56.3141 50.047 55.7922 50.8403 55.2179C50.9208 55.1615 50.9893 55.0898 51.0419 55.0067C51.0945 54.9238 51.1301 54.8312 51.1467 54.7343C51.1633 54.6375 51.1605 54.5383 51.1386 54.4426C51.1166 54.3467 51.076 54.2563 51.0189 54.1763C50.9051 54.0159 50.7325 53.9071 50.5386 53.8737C50.3449 53.8402 50.1458 53.8848 49.9848 53.9977L49.9699 53.9829Z" fill="#7D63FF"/>
<path id="Vector_17" d="M23.624 55.7036C22.8061 55.2987 22.018 54.8363 21.2656 54.3198C21.1037 54.2076 20.9039 54.1641 20.7101 54.199C20.5162 54.2339 20.3441 54.3442 20.2315 54.5058C20.1185 54.6668 20.0739 54.8659 20.1073 55.0597C20.1408 55.2535 20.2496 55.4261 20.41 55.5399C21.2194 56.0912 22.0645 56.5882 22.9395 57.0279C23.1161 57.1167 23.3208 57.1317 23.5084 57.0696C23.6961 57.0075 23.8514 56.8734 23.9402 56.6968C24.0289 56.5202 24.044 56.3156 23.9819 56.1279C23.9198 55.9402 23.7857 55.785 23.6091 55.6961L23.624 55.7036Z" fill="#7D63FF"/>
<path id="Vector_18" d="M28.7879 57.5478C27.8937 57.352 27.0118 57.1036 26.1468 56.8039C26.0545 56.7711 25.9567 56.7569 25.8588 56.762C25.761 56.7671 25.6651 56.7914 25.5767 56.8336C25.4883 56.8757 25.409 56.9348 25.3435 57.0076C25.2779 57.0804 25.2273 57.1654 25.1945 57.2577C25.1618 57.35 25.1476 57.4479 25.1527 57.5457C25.1578 57.6435 25.1821 57.7394 25.2242 57.8278C25.2664 57.9163 25.3255 57.9955 25.3983 58.0611C25.4711 58.1267 25.556 58.1773 25.6484 58.21C26.5691 58.5331 27.5082 58.8014 28.4606 59.0135C28.5174 59.0207 28.5749 59.0207 28.6317 59.0135C28.829 59.0342 29.0265 58.9757 29.1807 58.8508C29.3348 58.7259 29.4331 58.5449 29.4538 58.3476C29.4746 58.1503 29.416 57.9529 29.2912 57.7986C29.1663 57.6445 28.9852 57.5462 28.7879 57.5255V57.5478Z" fill="#7D63FF"/>
<path id="Vector_19" d="M34.2781 58.2182C33.3407 58.2182 32.4107 58.1215 31.518 58.0173C31.4203 58.0056 31.3213 58.0132 31.2265 58.0398C31.1318 58.0663 31.0432 58.1113 30.9658 58.1721C30.8884 58.2329 30.8238 58.3084 30.7755 58.3941C30.7273 58.4798 30.6965 58.5743 30.6847 58.672C30.673 58.7697 30.6806 58.8688 30.7072 58.9635C30.7337 59.0583 30.7787 59.1469 30.8395 59.2243C30.9003 59.3016 30.9758 59.3663 31.0615 59.4145C31.1473 59.4627 31.2417 59.4935 31.3394 59.5053C32.2768 59.6169 33.2514 59.6838 34.2335 59.7136C34.4309 59.7136 34.6201 59.6352 34.7595 59.4957C34.8991 59.3562 34.9775 59.1669 34.9775 58.9696C34.9775 58.7723 34.8991 58.583 34.7595 58.4435C34.6201 58.304 34.4309 58.2256 34.2335 58.2256L34.2781 58.2182Z" fill="#7D63FF"/>
</g>
</g>
<defs>
<filter id="filter0_b_3088_12618" x="-20" y="-20" width="111.485" height="111.485" filterUnits="userSpaceOnUse" color-interpolation-filters="sRGB">
<feFlood flood-opacity="0" result="BackgroundImageFix"/>
<feGaussianBlur in="BackgroundImageFix" stdDeviation="10"/>
<feComposite in2="SourceAlpha" operator="in" result="effect1_backgroundBlur_3088_12618"/>
<feBlend mode="normal" in="SourceGraphic" in2="effect1_backgroundBlur_3088_12618" result="shape"/>
</filter>
</defs>
</svg>
