<svg width="49" height="52" viewBox="0 0 49 52" fill="none" xmlns="http://www.w3.org/2000/svg">
<g id="brain" clip-path="url(#clip0_3156_227)">
<path id="Vector" d="M17.3136 0.546364C14.0187 0.546364 11.3391 3.26086 11.3391 6.59866C11.3391 6.82228 11.3532 7.04829 11.3837 7.28144C7.71067 7.73346 4.84316 10.9285 4.84316 14.7564C4.84316 15.5082 4.95589 16.2504 5.1743 16.9713C2.05786 19.0791 0.214294 22.5478 0.214294 26.359C0.214294 30.1702 2.03202 33.5842 5.10385 35.6968C4.93006 36.3415 4.84316 36.9957 4.84316 37.6547C4.84316 41.4826 7.71067 44.6777 11.3837 45.1297C11.3532 45.3628 11.3391 45.5888 11.3391 45.8125C11.3391 49.1503 14.0187 51.8647 17.3136 51.8647C20.6086 51.8647 23.2882 49.1503 23.2882 45.8125V6.59866C23.2882 3.26086 20.6086 0.546364 17.3136 0.546364ZM17.3136 50.4825C14.7726 50.4825 12.7036 48.389 12.7036 45.8125C12.7036 45.4604 12.7552 45.0964 12.8633 44.6634L13.0793 43.8093L12.2104 43.7998C8.90135 43.7617 6.20998 41.0044 6.20998 37.6547C6.20998 36.9743 6.32506 36.2915 6.55521 35.6301L6.73605 35.1044L6.26635 34.8118C3.33074 32.9894 1.57877 29.83 1.57877 26.3614C1.57877 22.8927 3.36127 19.6715 6.35089 17.8563L6.84642 17.5542L6.63506 17.0094C6.35324 16.2837 6.20998 15.5248 6.20998 14.7588C6.20998 11.4067 8.90135 8.65177 12.2104 8.6137L13.0793 8.60419L12.8633 7.75249C12.7552 7.31951 12.7036 6.95313 12.7036 6.60341C12.7036 4.02929 14.7702 1.93335 17.3136 1.93335C19.857 1.93335 21.9237 4.02691 21.9237 6.60341V45.8148C21.9237 48.389 19.857 50.4849 17.3136 50.4849V50.4825Z" fill="#7D63FF"/>
<path id="Vector_2" d="M31.684 0.546432C28.3891 0.546432 25.7095 3.26093 25.7095 6.59872V45.8149C25.7095 49.1527 28.3891 51.8672 31.684 51.8672C34.979 51.8672 37.6586 49.1527 37.6586 45.8149C37.6586 45.5913 37.6445 45.3653 37.614 45.1321C41.287 44.6801 44.1545 41.485 44.1545 37.6572C44.1545 37.0005 44.0676 36.3439 43.8938 35.6992C46.9656 33.5866 48.7834 30.1346 48.7834 26.3614C48.7834 22.5883 46.9398 19.0816 43.821 16.9737C44.0418 16.2529 44.1521 15.5106 44.1521 14.7589C44.1521 10.931 41.2846 7.73591 37.6116 7.28389C37.6421 7.05074 37.6562 6.82473 37.6562 6.6011C37.6562 3.2633 34.9766 0.548813 31.6817 0.548813L31.684 0.546432ZM31.684 50.4826C29.143 50.4826 27.0739 48.389 27.0739 45.8125V6.59872C27.0739 4.0246 29.1406 1.92866 31.684 1.92866C34.2274 1.92866 36.2941 4.02222 36.2941 6.59872C36.2941 6.94844 36.2424 7.31482 36.1344 7.7478L35.9184 8.5995L36.7873 8.60902C40.0963 8.64708 42.7877 11.4044 42.7877 14.7541C42.7877 15.5225 42.6444 16.2791 42.3626 17.0047L42.1512 17.5495L42.6468 17.8516C45.634 19.6668 47.4189 22.8452 47.4189 26.3567C47.4189 29.8682 45.6669 32.9847 42.7313 34.8071L42.2616 35.0997L42.4424 35.6255C42.6703 36.2892 42.7877 36.9696 42.7877 37.65C42.7877 40.9997 40.0963 43.757 36.7873 43.7951L35.9184 43.8046L36.1344 44.6587C36.2424 45.0917 36.2941 45.458 36.2941 45.8078C36.2941 48.3819 34.2274 50.4778 31.684 50.4778V50.4826Z" fill="#7D63FF"/>
<path id="Vector_3" d="M30.4182 5.54492H26.2027V6.92952H29.0514V15.8319H34.7653C35.0729 17.1404 36.2378 18.1158 37.6234 18.1158C39.2438 18.1158 40.5613 16.7811 40.5613 15.1396C40.5613 13.4981 39.2438 12.1634 37.6234 12.1634C36.2378 12.1634 35.0729 13.1388 34.7653 14.4497H30.4159V5.5473L30.4182 5.54492ZM37.6257 16.7312C36.7591 16.7312 36.0522 16.0175 36.0522 15.1372C36.0522 14.257 36.7568 13.5433 37.6257 13.5433C38.4947 13.5433 39.1992 14.257 39.1992 15.1372C39.1992 16.0175 38.4947 16.7312 37.6257 16.7312ZM41.7262 22.8453C40.3406 22.8453 39.1757 23.8207 38.8681 25.1316H26.7898V26.5162H38.8681C39.1757 27.8247 40.3406 28.8001 41.7262 28.8001C43.3466 28.8001 44.6641 27.4654 44.6641 25.8239C44.6641 24.1824 43.3466 22.8477 41.7262 22.8477V22.8453ZM41.7262 27.4155C40.8596 27.4155 40.1527 26.7018 40.1527 25.8215C40.1527 24.9413 40.8572 24.2276 41.7262 24.2276C42.5951 24.2276 43.2997 24.9413 43.2997 25.8215C43.2997 26.7018 42.5951 27.4155 41.7262 27.4155ZM35.8667 32.9349C34.4811 32.9349 33.3162 33.9103 33.0086 35.2187H29.0326L29.049 41.1545H26.2027V42.5391H30.4182L30.4018 36.6033H33.0086C33.3162 37.9118 34.4811 38.8872 35.8667 38.8872C37.4872 38.8872 38.8047 37.5526 38.8047 35.911C38.8047 34.2695 37.4872 32.9349 35.8667 32.9349ZM35.8667 37.505C35.0001 37.505 34.2932 36.7913 34.2932 35.911C34.2932 35.0308 34.9978 34.3171 35.8667 34.3171C36.7356 34.3171 37.4402 35.0308 37.4402 35.911C37.4402 36.7913 36.7356 37.505 35.8667 37.505Z" fill="#7D63FF"/>
<path id="Vector_4" d="M22.9477 5.54491H18.7321V14.4473H14.3827C14.0751 13.1388 12.9102 12.161 11.5246 12.161C9.90417 12.161 8.58667 13.4957 8.58667 15.1372C8.58667 16.7788 9.90417 18.1134 11.5246 18.1134C12.9102 18.1134 14.0751 17.138 14.3827 15.8295H20.0966V6.92714H22.9453V5.54253L22.9477 5.54491ZM11.5246 16.7312C10.658 16.7312 9.95114 16.0175 9.95114 15.1372C9.95114 14.257 10.6557 13.5433 11.5246 13.5433C12.3936 13.5433 13.0981 14.257 13.0981 15.1372C13.0981 16.0175 12.3936 16.7312 11.5246 16.7312ZM7.42416 22.8453C5.80371 22.8453 4.48621 24.18 4.48621 25.8215C4.48621 27.4631 5.80371 28.7977 7.42416 28.7977C8.80977 28.7977 9.97462 27.8223 10.2823 26.5138H22.3605V25.1292H10.2823C9.97462 23.8207 8.80977 22.8429 7.42416 22.8429V22.8453ZM7.42416 27.4155C6.55757 27.4155 5.85068 26.7018 5.85068 25.8215C5.85068 24.9413 6.55522 24.2276 7.42416 24.2276C8.29311 24.2276 8.99765 24.9413 8.99765 25.8215C8.99765 26.7018 8.29311 27.4155 7.42416 27.4155ZM13.2836 32.9349C11.6632 32.9349 10.3457 34.2695 10.3457 35.911C10.3457 37.5526 11.6632 38.8872 13.2836 38.8872C14.6692 38.8872 15.8341 37.9118 16.1418 36.6033H18.7321V42.5391H22.9477V41.1545H20.099V35.2187H16.1418C15.8341 33.9103 14.6692 32.9349 13.2836 32.9349ZM13.2836 37.505C12.417 37.505 11.7102 36.7913 11.7102 35.911C11.7102 35.0308 12.4147 34.3171 13.2836 34.3171C14.1526 34.3171 14.8571 35.0308 14.8571 35.911C14.8571 36.7913 14.1526 37.505 13.2836 37.505Z" fill="#7D63FF"/>
</g>
<defs>
<clipPath id="clip0_3156_227">
<rect width="48.5714" height="51.3208" fill="white" transform="matrix(1 0 0 -1 0.214294 51.8672)"/>
</clipPath>
</defs>
</svg>
