<svg width="52" height="54" viewBox="0 0 52 54" fill="none" xmlns="http://www.w3.org/2000/svg">
<g id="Layer_1" clip-path="url(#clip0_3156_359)">
<path id="Vector" d="M3.57882 23.463V30.4725C3.02824 30.5529 2.49294 30.7356 2.01882 31.0207C1.54471 31.2984 1.12412 31.6712 0.802941 32.1097C0.474118 32.5483 0.244706 33.0453 0.122353 33.5716C0 34.0978 -0.0152941 34.646 0.0764706 35.1796C0.0764706 35.2234 0.0764706 35.26 0.0764706 35.3038C0.313529 36.2467 0.879412 37.0873 1.67471 37.6793C2.47 38.2714 3.45647 38.5856 4.45824 38.571C5.50588 38.5637 6.52294 38.2056 7.33353 37.5624L21.9776 48.0949C21.6488 48.665 21.4729 49.3009 21.4729 49.9587C21.5494 51.0989 22.0924 52.1661 22.9794 52.9189C23.8665 53.679 25.0212 54.0664 26.2065 54.0006C27.2924 53.9349 28.3171 53.4817 29.0894 52.7362C29.8618 51.9906 30.3206 51.0039 30.3971 49.9514C30.3971 49.3082 30.2288 48.6796 29.9076 48.1168L44.6665 37.577C45.4694 38.2275 46.4865 38.5856 47.5341 38.5856C48.6812 38.6222 49.7976 38.2129 50.6388 37.46C51.48 36.6999 51.9694 35.6547 52.0153 34.5437C52.0153 33.6081 51.6788 32.7018 51.0747 31.9782C50.4706 31.2473 49.6294 30.7429 48.6888 30.5383V22.9002C49.7671 22.659 50.7076 22.0158 51.2965 21.1022C51.8853 20.1885 52.0765 19.0995 51.8318 18.0542V17.9008C51.5565 17.009 50.9829 16.227 50.2029 15.6788C49.4229 15.1306 48.4747 14.8455 47.5112 14.8675C46.9147 14.8675 46.3182 14.9698 45.7676 15.1891C45.2171 15.4083 44.7124 15.7299 44.2918 16.1392L29.9841 5.86989C30.2976 5.3144 30.4659 4.69312 30.4735 4.05722C30.3971 2.91699 29.8541 1.84986 28.9671 1.09702C28.0647 0.329555 26.9024 -0.05783 25.7247 0.000643193C24.6388 0.0664255 23.6141 0.519593 22.8418 1.26513C22.0694 2.01066 21.6106 2.99739 21.5341 4.04991C21.5341 4.69312 21.71 5.3217 22.0235 5.88451L7.37941 16.3731C6.56118 15.7153 5.53647 15.3572 4.47353 15.3645C3.32647 15.3352 2.21 15.7372 1.37647 16.4974C0.535294 17.2575 0.0458824 18.3028 0 19.4137C0.00764706 20.3859 0.374706 21.3287 1.03235 22.067C1.69 22.8052 2.59235 23.3022 3.57882 23.463ZM7.00471 35.3038C6.89 35.6108 6.72176 35.8886 6.5 36.1298C6.27824 36.371 6.00294 36.5683 5.70471 36.7072C5.40647 36.8461 5.07765 36.9265 4.74118 36.9411H4.48118C3.80824 36.9776 3.15059 36.7584 2.64588 36.3271C2.14118 35.8959 1.82765 35.2892 1.78176 34.6387C1.74353 33.9882 1.96529 33.3523 2.41647 32.8626C2.86765 32.3729 3.48706 32.0732 4.16 32.0293H4.48118C5.15412 31.9928 5.81176 32.2194 6.30882 32.6579C6.80588 33.0892 7.11177 33.7031 7.15 34.3463C7.16529 34.6679 7.11941 34.9895 7.01235 35.2965L7.00471 35.3038ZM8.52647 36.2248C8.58765 36.0859 8.64882 35.9397 8.69471 35.7862V35.7351C8.75588 35.5743 8.80177 35.4062 8.83235 35.2381C8.83235 35.1869 8.83235 35.1357 8.83235 35.0846C8.87059 34.8872 8.89353 34.6826 8.89353 34.4779C8.89353 34.2732 8.87059 34.0686 8.83235 33.8712C8.83235 33.8201 8.83235 33.7616 8.83235 33.7104C8.80177 33.5423 8.75588 33.3742 8.69471 33.2134V33.1111C8.63353 32.9503 8.55706 32.7895 8.47294 32.636L14.8888 28.0239L16.9841 29.5077L21.9088 33.0453C21.9088 33.0892 21.9088 33.133 21.9088 33.1769C21.8094 33.3596 21.7176 33.557 21.6488 33.7543C21.6259 33.8274 21.6106 33.8932 21.5953 33.9663C21.4806 34.4706 21.4806 34.9969 21.5953 35.5012C21.6106 35.5816 21.6335 35.6693 21.6718 35.7424C21.71 35.9105 21.7712 36.0713 21.84 36.2248C21.84 36.3125 21.9241 36.4002 21.9624 36.4879C22.0006 36.5756 22.1229 36.7584 22.1994 36.8899L22.3906 37.1311C22.49 37.2554 22.5894 37.365 22.7041 37.4747C22.7729 37.5551 22.8494 37.6208 22.9335 37.6866C23.0559 37.7963 23.1859 37.8913 23.3235 37.979L23.5759 38.1544C23.7365 38.2348 23.8894 38.3152 24.0576 38.3883L24.2947 38.4979C24.5394 38.593 24.7994 38.6734 25.0594 38.7172V45.9679C24.9371 45.9898 24.8224 46.019 24.7 46.0556H24.5394C24.3712 46.1068 24.2106 46.1652 24.0576 46.2383H23.9735L23.5988 46.4284L23.4382 46.5307L23.1629 46.7207L8.51882 36.1882L8.52647 36.2248ZM23.4612 22.7686L23.5988 22.849C23.79 22.966 23.9965 23.0683 24.2029 23.156H24.2947C24.5318 23.2437 24.7765 23.3095 25.0288 23.3607H25.1971C25.7247 23.463 26.26 23.463 26.7876 23.3607H26.9635C27.2159 23.3095 27.4682 23.2364 27.7053 23.1487H27.7894C28.0035 23.0683 28.21 22.966 28.4088 22.8417L28.5465 22.7613C28.7529 22.6298 28.9518 22.4836 29.1353 22.3155L34.1059 25.897L35.6506 27.008L33.8918 28.2724L29.0512 31.7443C28.8676 31.5908 28.6688 31.4519 28.4624 31.3277L28.3018 31.24C28.1259 31.1303 27.9424 31.0353 27.7512 30.9549H27.6671C27.4147 30.8599 27.1624 30.7868 26.9024 30.7356H26.7035C26.2141 30.6479 25.7171 30.6479 25.2276 30.7356H25.0518C24.8147 30.7868 24.5776 30.8526 24.3482 30.9257H24.2641C24.0576 30.9987 23.8665 31.0865 23.6753 31.1961L23.5606 31.2984C23.3541 31.4154 23.1629 31.5542 22.9871 31.7004L16.3953 26.9641L18.1541 25.7069L22.8724 22.3155C23.0559 22.4836 23.2471 22.6298 23.4612 22.7613V22.7686ZM23.6829 18.3101L23.7747 18.1566C24.18 17.6084 24.7765 17.221 25.4647 17.0821C26.1453 16.9433 26.8565 17.0529 27.4606 17.3964C27.8276 17.6011 28.1335 17.9008 28.3553 18.2516C28.5694 18.6024 28.6918 19.0044 28.7071 19.4211L28.6688 19.4722C28.6765 19.5819 28.6765 19.6915 28.6688 19.8084C28.6229 20.152 28.4929 20.4736 28.2941 20.7586C27.8888 21.3068 27.2924 21.6869 26.6118 21.8331C25.9312 21.9719 25.22 21.8623 24.6235 21.5188C24.0576 21.2118 23.6447 20.7002 23.4688 20.1008C23.2929 19.5015 23.3771 18.8582 23.6906 18.3101H23.6829ZM28.6153 35.1065C28.5618 35.4135 28.4471 35.7058 28.2788 35.969C28.1106 36.2321 27.8888 36.4587 27.6288 36.6414C27.5829 36.678 27.5371 36.7145 27.4835 36.7437C26.8947 37.1092 26.1835 37.2481 25.4953 37.1238C24.8071 37.0069 24.1876 36.6341 23.7671 36.0932C23.4612 35.6985 23.3006 35.2161 23.2929 34.7191C23.2929 34.2221 23.4612 33.7324 23.7747 33.3304C24.1953 32.7895 24.8147 32.424 25.5029 32.3071C26.1912 32.1901 26.9024 32.329 27.4912 32.6945C27.5829 32.7529 27.6671 32.8187 27.7512 32.8845C27.9118 33.0161 28.0571 33.1696 28.1794 33.3377C28.3706 33.5862 28.5006 33.8712 28.5771 34.1782C28.6535 34.4779 28.6612 34.7922 28.6076 35.0992L28.6153 35.1065ZM27.8812 52.0272C27.3841 52.5096 26.7035 52.7873 26 52.7873C25.2965 52.7873 24.6235 52.5096 24.1188 52.0272C23.6218 51.5448 23.3388 50.8943 23.3312 50.2072V50.1926C23.3312 49.5128 23.6141 48.8623 24.1188 48.3799C24.6159 47.8975 25.2965 47.6271 26 47.6271C26.3518 47.6271 26.6959 47.6855 27.0171 47.8171C27.3382 47.9414 27.6365 48.1314 27.8812 48.3726C28.1259 48.6138 28.3247 48.8915 28.4624 49.2058C28.5924 49.5201 28.6612 49.8564 28.6612 50.1926C28.6612 50.8796 28.3782 51.5302 27.8812 52.0199V52.0272ZM43.16 35.0919V35.2527C43.1982 35.4135 43.2441 35.5816 43.2976 35.7351C43.2976 35.7716 43.2976 35.8009 43.2976 35.8374C43.3588 35.9982 43.4353 36.159 43.5194 36.3125L28.8676 46.8523H28.8141L28.5541 46.6696L28.3859 46.5672C28.2559 46.4868 28.1259 46.4211 27.9882 46.3626H27.9271C27.7741 46.2895 27.6135 46.231 27.4453 46.1799H27.2694L26.9329 46.0995V38.7318C27.2006 38.6807 27.4606 38.6076 27.7053 38.5126L27.9424 38.4102C28.1106 38.3371 28.2712 38.2567 28.4241 38.169L28.6765 37.9936L29.0665 37.7085L29.2959 37.4966L29.6094 37.1457L29.7853 36.9045C29.8771 36.773 29.9612 36.6414 30.0376 36.5025C30.0835 36.4148 30.1294 36.3271 30.16 36.2394C30.2212 36.0932 30.2671 35.947 30.2976 35.7936C30.2976 35.7132 30.3512 35.6401 30.3741 35.5523C30.4888 35.0553 30.4888 34.5364 30.3741 34.032C30.3741 33.9443 30.3512 33.8566 30.3206 33.7689C30.2671 33.5789 30.2059 33.3961 30.1294 33.2134V33.0892L34.9088 29.6319L37.1035 28.0532L43.5194 32.6579C43.4353 32.8114 43.3588 32.9722 43.2976 33.133V33.2353C43.2365 33.3888 43.1906 33.5496 43.16 33.7104V33.8859C43.0835 34.2806 43.0835 34.6899 43.16 35.0919ZM49.7824 33.1403C50.0576 33.5423 50.2029 34.0101 50.2029 34.4852C50.2029 34.8141 50.1188 35.1357 49.9888 35.4427C49.8588 35.7497 49.6524 36.0128 49.4076 36.2467C49.1629 36.4733 48.8724 36.656 48.5512 36.773C48.2376 36.8899 47.8935 36.9484 47.5571 36.9411H47.5265C47.0294 36.9119 46.5553 36.7437 46.1653 36.4587C45.7676 36.1736 45.4694 35.7789 45.3012 35.3331C45.1329 34.8872 45.1024 34.3975 45.2171 33.9297C45.3318 33.4619 45.5841 33.038 45.9435 32.7164C46.3029 32.3875 46.7541 32.1682 47.2435 32.0878C47.7329 32.0074 48.23 32.0586 48.6888 32.2486C49.14 32.4386 49.53 32.7529 49.8053 33.1476L49.7824 33.1403ZM45.2324 17.74C45.4847 17.3745 45.8212 17.0821 46.2265 16.8775C46.6241 16.6728 47.0753 16.5705 47.5265 16.5778C47.8553 16.5559 48.1918 16.5997 48.5053 16.7021C48.8188 16.8044 49.1094 16.9652 49.3618 17.1771C49.6141 17.3891 49.8206 17.6449 49.9659 17.9373C50.1112 18.2297 50.2029 18.544 50.2182 18.8656C50.2565 19.5161 50.0347 20.152 49.5835 20.6417C49.14 21.1314 48.5129 21.4311 47.84 21.4749H47.5341C46.8382 21.4749 46.1653 21.2264 45.6529 20.7732C45.2094 20.4078 44.9188 19.8962 44.8424 19.3333C44.7659 18.7705 44.8959 18.2077 45.2247 17.74H45.2324ZM45.0259 22.3666C45.5918 22.7175 46.2418 22.9441 46.9071 23.0245V30.4433C46.0735 30.5456 45.2859 30.8672 44.6359 31.3861L38.5565 27.0226L45.0182 22.3666H45.0259ZM43.3282 17.5938C43.3282 17.6303 43.3282 17.6669 43.3282 17.7034L43.2976 17.6815C43.2976 17.835 43.1906 17.9958 43.1524 18.1566C43.1141 18.3174 43.1524 18.2808 43.1524 18.3393C43.1141 18.5513 43.0912 18.7705 43.0912 18.9898C43.0912 19.2383 43.1218 19.4795 43.1753 19.7207C43.1753 19.7865 43.1753 19.8523 43.1753 19.9254C43.2212 20.1081 43.2824 20.2908 43.3512 20.4736L43.4429 20.6344C43.5347 20.8317 43.6494 21.0218 43.7794 21.2045L37.1035 25.992L30.42 21.1826L30.1371 20.9779C30.1371 20.934 30.1371 20.8975 30.1371 20.8536C30.2059 20.6928 30.2671 20.5247 30.3053 20.3566V20.1666C30.3512 19.94 30.3741 19.7134 30.3818 19.4868C30.3818 19.2237 30.3512 18.9606 30.29 18.7048C30.2747 18.6244 30.2518 18.5366 30.2135 18.4636C30.1676 18.2954 30.1218 18.1346 30.0529 17.9812C30.0529 17.8934 29.9612 17.8057 29.9153 17.718C29.8771 17.6303 29.7547 17.4476 29.6782 17.316L29.4871 17.0602C29.3876 16.9433 29.2882 16.8336 29.1735 16.724L28.9441 16.5047L28.5694 16.2196C28.4776 16.1612 28.4012 16.0954 28.3094 16.0442C28.1565 15.9565 27.9959 15.8834 27.8353 15.8103L27.5829 15.7007C27.3382 15.6057 27.0782 15.5253 26.8182 15.4814V8.09918L27.1624 8.01878L27.3382 7.96762C27.4988 7.91645 27.6594 7.85798 27.82 7.78489C28.0188 7.69718 28.2024 7.59485 28.3859 7.4779C28.4318 7.4779 28.4776 7.4779 28.5235 7.4779L28.8141 7.27325L43.3206 17.5938H43.3282ZM23.5224 3.09241C23.66 2.79274 23.8588 2.51499 24.1112 2.28841C24.3635 2.06182 24.6541 1.8864 24.9753 1.76215C25.2965 1.63789 25.6329 1.58673 25.9771 1.60135C26.3212 1.59404 26.6653 1.6452 26.9865 1.76215C27.3076 1.87909 27.5982 2.05451 27.8506 2.2811C28.1029 2.50768 28.3018 2.77812 28.4394 3.0851C28.5771 3.39209 28.6535 3.71369 28.6688 4.04991C28.6382 4.71505 28.34 5.34363 27.8353 5.80411C27.3306 6.26458 26.6653 6.5131 25.9771 6.49848C25.7782 6.49848 25.5794 6.47655 25.3806 6.44C24.7994 6.30844 24.2794 6.00146 23.8971 5.56291C23.5224 5.14629 23.3082 4.61272 23.3006 4.05722C23.3082 3.72831 23.3847 3.3994 23.53 3.09972L23.5224 3.09241ZM8.67176 18.7779V18.617C8.64118 18.4489 8.59529 18.2881 8.53412 18.1346V18.0469C8.53412 18.0469 8.39647 17.7326 8.32765 17.5791L23.1094 7.17823L23.3924 7.36096L23.5682 7.46329C23.7059 7.54369 23.8512 7.62409 23.9965 7.68256C24.1571 7.75565 24.3176 7.81412 24.4859 7.86529H24.6235C24.7459 7.86529 24.8606 7.93838 24.9906 7.953V15.3572C24.7306 15.4083 24.4782 15.4887 24.2259 15.5764C24.1418 15.6057 24.0576 15.6422 23.9735 15.6861L23.4994 15.92L23.2394 16.0954C23.1094 16.1904 22.9794 16.2854 22.8647 16.3878C22.7806 16.4535 22.7041 16.5266 22.6353 16.5997C22.5206 16.7094 22.4212 16.819 22.3218 16.9433L22.1306 17.1845C22.0465 17.316 21.9624 17.4476 21.8935 17.5865C21.8171 17.7253 21.8018 17.7619 21.7559 17.8496C21.7176 17.9373 21.6412 18.1712 21.5876 18.332C21.5647 18.4124 21.5418 18.4928 21.5265 18.5732C21.4653 18.829 21.4347 19.0921 21.4347 19.3553C21.4347 19.5892 21.4576 19.8157 21.5112 20.0423V20.2324C21.5571 20.4078 21.6106 20.5759 21.6794 20.7367C21.6794 20.7806 21.6794 20.8171 21.6794 20.861L14.7359 25.8385L8.28941 21.2118C8.38118 21.051 8.45765 20.8902 8.52647 20.7294V20.6271C8.58765 20.4663 8.63353 20.2982 8.67176 20.13V19.9692C8.74824 19.5745 8.74824 19.1652 8.67176 18.7632V18.7779ZM13.4282 27.0299L7.34882 31.3715C6.77529 30.9183 6.09471 30.6114 5.36059 30.4798V23.4557C6.07176 23.3314 6.73706 23.0537 7.30294 22.6225L13.4206 27.0226L13.4282 27.0299ZM1.79706 19.4649C1.80471 19.136 1.88118 18.8071 2.02647 18.5074C2.17176 18.2077 2.36294 17.93 2.61529 17.7034C2.86765 17.4768 3.15824 17.3014 3.47941 17.1771C3.80059 17.0602 4.13706 17.0017 4.48118 17.009C4.88647 17.0163 5.28412 17.1114 5.64353 17.2868C6.00294 17.4622 6.32412 17.7107 6.56882 18.0177C6.76765 18.2589 6.92059 18.5366 7.01235 18.8363C7.10412 19.136 7.13471 19.443 7.09647 19.7573C7.06588 20.0643 6.96647 20.3639 6.81353 20.6344C6.66059 20.9048 6.45412 21.146 6.20176 21.3434L6.04118 21.4676C5.57471 21.7892 5.01647 21.9646 4.44294 21.9646C3.75471 21.9866 3.08176 21.7381 2.57706 21.2776C2.07235 20.8171 1.77412 20.1885 1.75882 19.5161L1.79706 19.4649Z" fill="#7D63FF"/>
</g>
<defs>
<clipPath id="clip0_3156_359">
<rect width="52" height="54" fill="white"/>
</clipPath>
</defs>
</svg>
