<svg width="53" height="54" viewBox="0 0 53 54" fill="none" xmlns="http://www.w3.org/2000/svg">
<g id="Layer_1" clip-path="url(#clip0_3156_249)">
<path id="Vector" d="M20.2191 53.0622C20.218 50.4874 20.2092 47.9126 20.2246 45.3378C20.2268 44.9894 20.1317 44.8069 19.7944 44.6963C19.3431 44.5481 18.893 44.3767 18.476 44.1521C18.0933 43.9453 17.8555 44.0404 17.5724 44.328C15.92 46.0047 14.2465 47.6593 12.5963 49.3371C12.3154 49.6236 12.1583 49.7054 11.8254 49.3681C9.11121 46.6219 6.37821 43.8922 3.63635 41.1726C3.35984 40.8972 3.36869 40.76 3.64077 40.4913C5.35623 38.8002 7.04846 37.0847 8.7606 35.3914C9.00282 35.1525 9.07803 34.9678 8.9077 34.6438C8.67765 34.208 8.48852 33.7446 8.34031 33.2745C8.23081 32.9261 8.04279 32.8377 7.70213 32.8388C5.32969 32.8498 2.95724 32.8332 0.584804 32.8543C0.144602 32.8587 -0.00139391 32.7702 0.000818159 32.2924C0.0229388 28.4678 0.0207268 24.6421 0.00524229 20.8164C0.00303023 20.3962 0.095937 20.2601 0.541668 20.2645C2.91411 20.2878 5.28655 20.2645 7.65899 20.2822C8.03062 20.2845 8.21201 20.1838 8.32593 19.8177C8.47193 19.3477 8.67433 18.8887 8.90217 18.4507C9.06697 18.1333 9.00946 17.943 8.76171 17.6986C7.04736 16.0064 5.35512 14.291 3.63746 12.6021C3.36537 12.3344 3.35542 12.205 3.63414 11.9274C6.37268 9.20665 9.09794 6.4737 11.8121 3.72859C12.1108 3.42664 12.2634 3.41337 12.5709 3.72637C14.2432 5.43516 15.9487 7.10966 17.6255 8.81402C17.8887 9.08167 18.0922 9.14361 18.4229 8.95669C18.7558 8.76757 19.112 8.58176 19.4814 8.50323C20.1151 8.3694 20.2346 8.01659 20.2246 7.41602C20.1881 5.13654 20.2213 2.85484 20.2014 0.57535C20.1981 0.161703 20.3087 0.0610558 20.7223 0.0632678C24.5658 0.08207 28.4093 0.084282 32.2539 0.0654799C32.6941 0.0632678 32.8002 0.177187 32.7958 0.609637C32.7737 2.98203 32.798 5.35442 32.7759 7.72681C32.7726 8.13382 32.9042 8.32074 33.2803 8.42028C33.5612 8.49438 33.8277 8.6271 34.0976 8.74102C34.7081 8.99983 35.2527 8.89033 35.7312 8.41254C37.2896 6.85085 38.8547 5.2947 40.3998 3.71974C40.6796 3.43439 40.83 3.40784 41.1298 3.71089C43.8595 6.46817 46.6024 9.21108 49.3553 11.9451C49.6329 12.2205 49.5655 12.3687 49.3299 12.6021C47.6454 14.2722 45.9786 15.96 44.2864 17.6223C43.9734 17.9298 43.896 18.1742 44.115 18.5701C44.3262 18.9517 44.4755 19.372 44.6082 19.7901C44.7277 20.1661 44.9345 20.2867 45.3327 20.2845C47.8887 20.269 50.4448 20.28 53.0008 20.2833V32.8653C50.6096 32.8598 48.2194 32.8531 45.8282 32.8498C44.814 32.8487 44.8173 32.8531 44.4534 33.7756C44.3461 34.0487 44.241 34.3264 44.0939 34.5774C43.8926 34.9181 43.9457 35.1426 44.2366 35.4279C45.93 37.0892 47.5901 38.7836 49.2823 40.447C49.5953 40.7545 49.5843 40.916 49.2768 41.2212C46.5471 43.9287 43.8285 46.6473 41.1287 49.3836C40.8068 49.7099 40.663 49.6236 40.3987 49.3559C38.7186 47.6549 37.0186 45.9726 35.3386 44.2716C35.0964 44.0261 34.8984 43.9597 34.5776 44.1201C34.1197 44.349 33.6397 44.537 33.1586 44.7151C32.9009 44.8102 32.7825 44.9374 32.7836 45.2294C32.798 47.8407 32.7991 50.452 32.8036 53.0633H20.2213L20.2191 53.0622ZM26.456 1.62164V1.61832C25.0768 1.61832 23.6976 1.63823 22.3184 1.60726C21.8483 1.5962 21.7421 1.74662 21.7454 2.19455C21.7676 4.43754 21.7487 6.68163 21.762 8.92573C21.7642 9.25532 21.6735 9.39689 21.3417 9.49643C20.2169 9.83708 19.1275 10.2773 18.0944 10.8391C17.7825 11.0083 17.6011 10.9851 17.3489 10.7296C15.7607 9.11928 14.1437 7.53658 12.5598 5.92291C12.2778 5.63535 12.144 5.60438 11.8453 5.90742C9.85779 7.92479 7.85144 9.92445 5.84067 11.9175C5.58076 12.1741 5.54979 12.319 5.83625 12.5988C7.46433 14.1948 9.06365 15.8206 10.6873 17.421C10.9262 17.6566 10.9727 17.8335 10.8057 18.1255C10.2217 19.1486 9.79585 20.2435 9.45961 21.3694C9.34901 21.7422 9.16983 21.8318 8.79821 21.8284C6.55407 21.8096 4.31103 21.8295 2.06689 21.8107C1.65434 21.8074 1.54705 21.9169 1.55037 22.3328C1.57028 25.1465 1.56807 27.9602 1.55037 30.7738C1.54816 31.1831 1.65102 31.3047 2.07242 31.3014C4.29776 31.2804 6.5231 31.3036 8.74844 31.2826C9.1643 31.2782 9.37666 31.3866 9.49279 31.8002C9.79474 32.8786 10.2062 33.9216 10.7636 34.8937C10.9738 35.2598 10.8908 35.4611 10.6165 35.731C9.05591 37.265 7.52627 38.8311 5.9557 40.3541C5.58407 40.7147 5.54868 40.906 5.938 41.2865C7.90896 43.2154 9.85668 45.1697 11.7911 47.1351C12.113 47.4613 12.2822 47.4713 12.6074 47.1384C14.1746 45.5347 15.774 43.9619 17.3523 42.3682C17.5713 42.147 17.7361 42.0529 18.0502 42.2321C19.0733 42.8161 20.1727 43.2297 21.2975 43.5682C21.6514 43.6744 21.7753 43.8347 21.772 44.2218C21.7499 46.4836 21.7698 48.7465 21.7532 51.0083C21.7499 51.3932 21.8571 51.5093 22.2465 51.5071C25.0602 51.4916 27.874 51.4861 30.6877 51.5071C31.1423 51.5104 31.2385 51.3667 31.2352 50.9431C31.2175 48.7366 31.2385 46.529 31.2208 44.3225C31.2175 43.8978 31.3126 43.6865 31.7606 43.5549C32.8157 43.2452 33.8366 42.826 34.7988 42.2896C35.1694 42.0828 35.3872 42.1182 35.6848 42.4212C37.2288 43.9984 38.8049 45.5424 40.3511 47.1174C40.6542 47.4259 40.8267 47.5 41.1729 47.1483C43.1328 45.1553 45.1137 43.1822 47.1046 41.2212C47.412 40.9182 47.4142 40.7556 47.1046 40.4514C45.4886 38.8687 43.9026 37.2562 42.29 35.6691C42.0511 35.4335 42.019 35.2665 42.1783 34.9712C42.7368 33.9359 43.1958 32.8554 43.5155 31.7217C43.6073 31.3954 43.7699 31.2782 44.1326 31.2815C46.3945 31.3025 48.6574 31.2826 50.9193 31.3014C51.3307 31.3047 51.4535 31.1853 51.4513 30.7716C51.4347 27.9768 51.4325 25.1808 51.4535 22.3848C51.4568 21.9225 51.3163 21.8052 50.8684 21.8096C48.6431 21.8318 46.4177 21.8074 44.1924 21.8318C43.782 21.8362 43.6095 21.7024 43.5066 21.3241C43.2091 20.2214 42.7335 19.1873 42.1916 18.1863C42.0113 17.8534 42.0622 17.651 42.3298 17.3878C43.917 15.8294 45.4754 14.2412 47.0636 12.6839C47.3778 12.3754 47.4264 12.1962 47.0847 11.86C45.0916 9.90012 43.1151 7.92258 41.1541 5.93065C40.8356 5.60659 40.6641 5.66189 40.3799 5.95056C38.7916 7.56091 37.1823 9.15025 35.5908 10.7584C35.3773 10.9741 35.2213 11.0283 34.936 10.8723C33.9217 10.3182 32.86 9.85809 31.7484 9.54399C31.285 9.41348 31.2131 9.18785 31.2164 8.76425C31.2341 6.55776 31.212 4.35016 31.2297 2.14367C31.233 1.73334 31.1257 1.60615 30.7065 1.61279C29.2908 1.63823 27.874 1.62274 26.4582 1.62274L26.456 1.62164Z" fill="#7D63FF"/>
<path id="Vector_2" d="M17.4399 18.1623C20.1055 18.1778 22.1207 19.0881 23.8052 20.7758C26.5979 23.574 29.3973 26.3656 32.19 29.1649C33.421 30.3981 34.8489 30.8958 36.55 30.3384C38.4413 29.719 39.3648 28.0335 39.283 26.4331C39.1746 24.3129 37.7191 22.8142 35.8012 22.5819C34.4209 22.4149 33.2805 22.8551 32.3117 23.8107C31.7885 24.3272 31.2653 24.8448 30.7599 25.379C30.563 25.5881 30.4469 25.5881 30.2323 25.3868C29.3541 24.5595 29.3397 24.5606 30.2091 23.7101C30.9811 22.9547 31.6989 22.1495 32.6844 21.6252C36.0711 19.8247 40.2707 21.9736 40.7618 25.785C41.0891 28.3244 39.9466 30.4755 37.5565 31.6114C35.5733 32.5537 33.0295 32.212 31.2211 30.3904C28.4228 27.5712 25.6025 24.7741 22.7998 21.9593C21.6816 20.8367 20.3897 20.0746 18.8037 19.8158C15.2666 19.2374 11.8677 21.4781 11.0515 24.951C10.1534 28.7745 12.59 32.577 16.4567 33.2737C18.6588 33.6708 20.6474 33.1078 22.3153 31.5771C22.9646 30.981 23.5806 30.3472 24.2 29.719C24.3891 29.5266 24.5086 29.4967 24.7287 29.7035C25.6025 30.5209 25.6047 30.5054 24.7674 31.3559C23.6558 32.4829 22.541 33.5879 21.0533 34.2459C16.3815 36.3097 10.8944 33.6321 9.5871 28.686C8.41471 24.2531 11.0681 19.4276 15.9567 18.3304C16.5275 18.2021 17.1159 18.1391 17.4433 18.1656L17.4399 18.1623Z" fill="#7D63FF"/>
<path id="Vector_3" d="M43.6529 26.5182C43.6352 31.1668 39.9322 34.9228 35.3333 34.9449C32.8359 34.9571 30.7599 33.9418 29.0124 32.1755C26.3103 29.4436 23.5806 26.7383 20.8686 24.0164C20.0845 23.229 19.2107 22.6804 18.0582 22.5576C16.3284 22.374 14.4547 23.522 13.9272 25.1855C13.3211 27.0945 13.9858 28.9813 15.6161 29.9811C17.1955 30.95 19.1587 30.7089 20.5777 29.3551C21.1363 28.822 21.6805 28.2735 22.2125 27.7149C22.4082 27.5092 22.5244 27.5081 22.7345 27.705C23.6072 28.5245 23.6227 28.5256 22.7721 29.354C21.999 30.1072 21.2989 30.9323 20.3112 31.4532C16.6248 33.3998 12.11 30.7819 12.1498 26.5116C12.1752 23.8417 14.0157 21.5467 16.5839 21.0822C18.5449 20.7272 20.2891 21.2547 21.7192 22.6804C24.492 25.4454 27.2692 28.2071 30.0244 30.9898C31.2919 32.2706 32.7308 33.1322 34.5646 33.339C37.7832 33.7029 40.9697 31.5937 41.8423 28.4504C42.8544 24.805 40.9066 21.1463 37.2844 20.0337C34.8378 19.2827 32.6036 19.7915 30.6769 21.4903C30.0299 22.061 29.436 22.6925 28.8365 23.3141C28.6098 23.5486 28.4726 23.6393 28.1895 23.3517C27.3964 22.5454 27.3854 22.5653 28.1873 21.7469C29.2822 20.6298 30.3905 19.547 31.8482 18.8746C36.7059 16.636 42.6276 19.7539 43.5202 25.0306C43.6065 25.5427 43.5932 26.0537 43.654 26.516L43.6529 26.5182Z" fill="#7D63FF"/>
</g>
<defs>
<clipPath id="clip0_3156_249">
<rect width="53" height="53" fill="white" transform="translate(0 0.0625)"/>
</clipPath>
</defs>
</svg>
