<svg width="72" height="72" viewBox="0 0 72 72" fill="none" xmlns="http://www.w3.org/2000/svg">
<g id="Group 21299">
<g id="Rectangle 6239" filter="url(#filter0_b_3088_12594)">
<rect width="71.4847" height="71.4847" rx="13.8357" fill="white" fill-opacity="0.87"/>
</g>
<g id="Group 21296">
<path id="Vector" d="M45.6714 28.5188H42.0081C41.6845 27.7261 41.1321 27.0477 40.4214 26.5701C39.7106 26.0926 38.8738 25.8376 38.0175 25.8376H26.4432C25.2924 25.8397 24.1894 26.2977 23.3757 27.1114C22.562 27.9252 22.1039 29.0282 22.1018 30.179V35.5258C22.1059 36.4605 22.4115 37.3689 22.9732 38.116C23.5349 38.863 24.3227 39.4088 25.2195 39.6723V42.2054C25.2198 42.3553 25.2634 42.502 25.345 42.6278C25.4265 42.7536 25.5426 42.8532 25.6793 42.9147C25.7797 42.9604 25.8886 42.9843 25.9989 42.9848C26.1884 42.9845 26.3712 42.9153 26.5133 42.79L29.8258 39.8671H30.1142C30.4378 40.6599 30.9903 41.3383 31.7009 41.8158C32.4117 42.2933 33.2486 42.5483 34.1048 42.5483H42.2965L45.6012 45.4711C45.7563 45.6074 45.9592 45.6765 46.1652 45.6634C46.3713 45.6502 46.5636 45.5559 46.7002 45.401C46.8255 45.2589 46.8948 45.0761 46.895 44.8866V42.3535C47.7918 42.09 48.5797 41.5442 49.1414 40.7971C49.7031 40.0501 50.0087 39.1417 50.0127 38.207V32.8602C50.0107 31.7094 49.5526 30.6064 48.7389 29.7926C47.9252 28.9789 46.8222 28.5209 45.6714 28.5188ZM29.5219 38.3083C29.3325 38.3085 29.1495 38.3778 29.0074 38.5032L26.7783 40.4751V39.041C26.7799 38.8506 26.7119 38.6664 26.587 38.5227C26.462 38.3792 26.2889 38.2863 26.1002 38.2615C25.4298 38.1783 24.8126 37.854 24.3638 37.3492C23.9149 36.8444 23.665 36.1935 23.6606 35.518V30.179C23.6606 29.441 23.9539 28.7333 24.4757 28.2114C24.9975 27.6896 25.7052 27.3965 26.4432 27.3965H38.0253C38.7595 27.4085 39.4603 27.7055 39.9795 28.2248C40.4988 28.744 40.7958 29.4448 40.8078 30.179V35.518C40.8078 36.2567 40.5149 36.9652 39.9933 37.4883C39.4717 38.0114 38.764 38.3062 38.0253 38.3083H29.5219ZM48.4617 38.207C48.4574 38.8825 48.2075 39.5334 47.7586 40.0381C47.3097 40.543 46.6925 40.8673 46.0221 40.9505C45.8334 40.9752 45.6603 41.0681 45.5354 41.2117C45.4105 41.3554 45.3424 41.5396 45.344 41.73V43.1563L43.1149 41.2077C42.9728 41.0824 42.7899 41.0131 42.6005 41.0129H34.097C33.6645 41.0141 33.2378 40.9131 32.8518 40.718C32.4658 40.523 32.1313 40.2395 31.8757 39.8905H38.0253C39.1767 39.8905 40.2809 39.4332 41.0951 38.619C41.9093 37.8048 42.3666 36.7005 42.3666 35.5492V30.0933H45.6714C46.4094 30.0933 47.1171 30.3864 47.6389 30.9082C48.1607 31.43 48.4539 32.1378 48.4539 32.8758L48.4617 38.207Z" fill="#7D63FF"/>
<path id="Vector_2" d="M61.1973 30.639C61.404 30.639 61.6023 30.5569 61.7484 30.4107C61.8946 30.2646 61.9767 30.0663 61.9767 29.8596C61.9767 29.6529 61.8946 29.4546 61.7484 29.3085C61.6023 29.1623 61.404 29.0802 61.1973 29.0802H55.5465V24.5518H61.1973C61.404 24.5518 61.6023 24.4696 61.7484 24.3235C61.8946 24.1774 61.9767 23.9791 61.9767 23.7724C61.9767 23.5657 61.8946 23.3674 61.7484 23.2212C61.6023 23.0751 61.404 22.9929 61.1973 22.9929H55.5465C55.5355 21.2458 54.8499 19.5705 53.6328 18.317C52.4155 17.0635 50.7611 16.3289 49.015 16.2666V10.8107C49.015 10.604 48.9329 10.4057 48.7867 10.2595C48.6406 10.1134 48.4423 10.0312 48.2356 10.0312C48.0289 10.0312 47.8306 10.1134 47.6845 10.2595C47.5383 10.4057 47.4562 10.604 47.4562 10.8107V16.2666H42.9278V10.8107C42.9278 10.604 42.8456 10.4057 42.6995 10.2595C42.5534 10.1134 42.3551 10.0312 42.1484 10.0312C41.9417 10.0312 41.7434 10.1134 41.5972 10.2595C41.451 10.4057 41.369 10.604 41.369 10.8107V16.2666H36.8405V10.8107C36.8405 10.604 36.7584 10.4057 36.6122 10.2595C36.4661 10.1134 36.2678 10.0312 36.0611 10.0312C35.8544 10.0312 35.6561 10.1134 35.51 10.2595C35.3638 10.4057 35.2817 10.604 35.2817 10.8107V16.2666H30.7533V10.8107C30.7533 10.604 30.6711 10.4057 30.525 10.2595C30.3789 10.1134 30.1806 10.0312 29.9739 10.0312C29.7672 10.0312 29.5689 10.1134 29.4228 10.2595C29.2765 10.4057 29.1945 10.604 29.1945 10.8107V16.2666H24.6661V10.8107C24.6661 10.604 24.5839 10.4057 24.4378 10.2595C24.2916 10.1134 24.0933 10.0312 23.8866 10.0312C23.6799 10.0312 23.4817 10.1134 23.3355 10.2595C23.1893 10.4057 23.1072 10.604 23.1072 10.8107V16.2666C21.3611 16.3289 19.7066 17.0635 18.4895 18.317C17.2724 19.5705 16.5866 21.2458 16.5757 22.9929H10.9249C10.7182 22.9929 10.52 23.0751 10.3738 23.2212C10.2276 23.3674 10.1455 23.5657 10.1455 23.7724C10.1455 23.9791 10.2276 24.1774 10.3738 24.3235C10.52 24.4696 10.7182 24.5518 10.9249 24.5518H16.5757V29.0802H10.9249C10.7182 29.0802 10.52 29.1623 10.3738 29.3085C10.2276 29.4546 10.1455 29.6529 10.1455 29.8596C10.1455 30.0663 10.2276 30.2646 10.3738 30.4107C10.52 30.5569 10.7182 30.639 10.9249 30.639H16.5757V35.1674H10.9249C10.7182 35.1674 10.52 35.2496 10.3738 35.3957C10.2276 35.5419 10.1455 35.7402 10.1455 35.9469C10.1455 36.1536 10.2276 36.3518 10.3738 36.498C10.52 36.6442 10.7182 36.7263 10.9249 36.7263H16.5757V41.2547H10.9249C10.7182 41.2547 10.52 41.3368 10.3738 41.483C10.2276 41.6291 10.1455 41.8274 10.1455 42.0341C10.1455 42.2408 10.2276 42.4391 10.3738 42.5852C10.52 42.7314 10.7182 42.8135 10.9249 42.8135H16.5757V47.3419H10.9249C10.7182 47.3419 10.52 47.4241 10.3738 47.5702C10.2276 47.7164 10.1455 47.9146 10.1455 48.1213C10.1455 48.328 10.2276 48.5263 10.3738 48.6725C10.52 48.8186 10.7182 48.9008 10.9249 48.9008H16.5757C16.6797 50.5807 17.4069 52.1614 18.6149 53.3334C19.823 54.5053 21.4249 55.1843 23.1072 55.2374V61.083C23.1072 61.2897 23.1893 61.488 23.3355 61.6342C23.4817 61.7804 23.6799 61.8625 23.8866 61.8625C24.0933 61.8625 24.2916 61.7804 24.4378 61.6342C24.5839 61.488 24.6661 61.2897 24.6661 61.083V55.2374H29.1945V61.0752C29.1945 61.282 29.2765 61.4802 29.4228 61.6264C29.5689 61.7725 29.7672 61.8547 29.9739 61.8547C30.1806 61.8547 30.3789 61.7725 30.525 61.6264C30.6711 61.4802 30.7533 61.282 30.7533 61.0752V55.2374H35.2817V61.0752C35.2817 61.282 35.3638 61.4802 35.51 61.6264C35.6561 61.7725 35.8544 61.8547 36.0611 61.8547C36.2678 61.8547 36.4661 61.7725 36.6122 61.6264C36.7584 61.4802 36.8405 61.282 36.8405 61.0752V55.2374H41.369V61.0752C41.369 61.282 41.451 61.4802 41.5972 61.6264C41.7434 61.7725 41.9417 61.8547 42.1484 61.8547C42.3551 61.8547 42.5534 61.7725 42.6995 61.6264C42.8456 61.4802 42.9278 61.282 42.9278 61.0752V55.2374H47.4562V61.0752C47.4562 61.282 47.5383 61.4802 47.6845 61.6264C47.8306 61.7725 48.0289 61.8547 48.2356 61.8547C48.4423 61.8547 48.6406 61.7725 48.7867 61.6264C48.9329 61.4802 49.015 61.282 49.015 61.0752V55.2374C50.6973 55.1843 52.2993 54.5053 53.5073 53.3334C54.7154 52.1614 55.4426 50.5807 55.5465 48.9008H61.2207C61.4274 48.9008 61.6257 48.8186 61.7718 48.6725C61.918 48.5263 62.0001 48.328 62.0001 48.1213C62.0001 47.9146 61.918 47.7164 61.7718 47.5702C61.6257 47.4241 61.4274 47.3419 61.2207 47.3419H55.5465V42.8135H61.1973C61.404 42.8135 61.6023 42.7314 61.7484 42.5852C61.8946 42.4391 61.9767 42.2408 61.9767 42.0341C61.9767 41.8274 61.8946 41.6291 61.7484 41.483C61.6023 41.3368 61.404 41.2547 61.1973 41.2547H55.5465V36.7263H61.1973C61.404 36.7263 61.6023 36.6442 61.7484 36.498C61.8946 36.3518 61.9767 36.1536 61.9767 35.9469C61.9767 35.7402 61.8946 35.5419 61.7484 35.3957C61.6023 35.2496 61.404 35.1674 61.1973 35.1674H55.5465V30.639H61.1973ZM53.9877 48.4721C53.9877 49.8529 53.4392 51.1772 52.4628 52.1537C51.4863 53.13 50.162 53.6786 48.7812 53.6786H23.341C21.9602 53.6786 20.6359 53.13 19.6595 52.1537C18.6831 51.1772 18.1345 49.8529 18.1345 48.4721V23.0319C18.1345 21.6511 18.6831 20.3268 19.6595 19.3503C20.6359 18.374 21.9602 17.8254 23.341 17.8254H48.7812C50.162 17.8254 51.4863 18.374 52.4628 19.3503C53.4392 20.3268 53.9877 21.6511 53.9877 23.0319V48.4721Z" fill="#7D63FF"/>
</g>
</g>
<defs>
<filter id="filter0_b_3088_12594" x="-20" y="-20" width="111.485" height="111.485" filterUnits="userSpaceOnUse" color-interpolation-filters="sRGB">
<feFlood flood-opacity="0" result="BackgroundImageFix"/>
<feGaussianBlur in="BackgroundImageFix" stdDeviation="10"/>
<feComposite in2="SourceAlpha" operator="in" result="effect1_backgroundBlur_3088_12594"/>
<feBlend mode="normal" in="SourceGraphic" in2="effect1_backgroundBlur_3088_12594" result="shape"/>
</filter>
</defs>
</svg>
