<svg width="72" height="72" viewBox="0 0 72 72" fill="none" xmlns="http://www.w3.org/2000/svg">
<g id="Group 21299">
<g id="Rectangle 6239" filter="url(#filter0_b_3088_12612)">
<rect width="71.4847" height="71.4847" rx="13.8357" fill="white" fill-opacity="0.87"/>
</g>
<path id="Vector" d="M62.6118 31.7592L57.464 28.7712V23.7807C57.4645 23.644 57.4289 23.5095 57.3607 23.3909C57.2925 23.2723 57.1942 23.1739 57.0757 23.1055L43.3249 15.1891L40.2813 9.90369C40.2129 9.78525 40.1143 9.68698 39.9958 9.61884C39.8771 9.55069 39.7426 9.51509 39.6058 9.51563H33.3942C33.2574 9.51509 33.1229 9.55069 33.0043 9.61884C32.8857 9.68698 32.7871 9.78525 32.7187 9.90369L29.8692 14.8476L15.5749 23.0977C15.4564 23.1661 15.3581 23.2645 15.2899 23.3831C15.2217 23.5017 15.1861 23.6362 15.1866 23.773V28.9962L10.3882 31.7592C10.2697 31.8276 10.1714 31.926 10.1033 32.0446C10.0351 32.1632 9.99946 32.2977 10 32.4344V38.6434C9.99946 38.7801 10.0351 38.9146 10.1033 39.0332C10.1714 39.1517 10.2697 39.2502 10.3882 39.3186L15.1866 42.0816V47.2661C15.1875 47.4015 15.2238 47.5344 15.2918 47.6515C15.3599 47.7685 15.4575 47.8658 15.5749 47.9335L29.8769 56.1914L32.7187 61.1276C32.7871 61.246 32.8857 61.3442 33.0043 61.4124C33.1229 61.4805 33.2574 61.5162 33.3942 61.5156H39.6058C39.7426 61.5162 39.8771 61.4805 39.9958 61.4124C40.1143 61.3442 40.2129 61.246 40.2813 61.1276L43.3172 55.8655L57.0447 47.9335C57.162 47.8658 57.2596 47.7685 57.3277 47.6515C57.3958 47.5344 57.4321 47.4015 57.4329 47.2661V42.3067L62.6118 39.3109C62.7291 39.2431 62.8267 39.1458 62.8948 39.0288C62.9629 38.9117 62.9992 38.7788 63 38.6434V32.4112C62.9965 32.2784 62.959 32.1487 62.891 32.0345C62.823 31.9203 62.7269 31.8256 62.6118 31.7592ZM33.8834 11.0756H39.1943L41.8575 15.678L39.1943 20.2804H33.8446L31.1814 15.678L33.8834 11.0756ZM11.5451 32.8846L16.1494 30.2225L20.7537 32.8846V38.1932L16.1494 40.8476L11.5451 38.1932V32.8846ZM16.7318 42.3067L21.9184 39.3186C22.0369 39.2502 22.1352 39.1517 22.2034 39.0332C22.2715 38.9146 22.3072 38.7801 22.3066 38.6434V32.4112C22.3072 32.2744 22.2715 32.1399 22.2034 32.0213C22.1352 31.9027 22.0369 31.8043 21.9184 31.7359L16.7318 28.7479V24.2231L29.9313 16.6094L32.7187 21.4446C32.7871 21.563 32.8857 21.6613 33.0043 21.7294C33.1229 21.7976 33.2574 21.8332 33.3942 21.8327H35.7236V25.0225C35.084 24.6636 34.3604 24.4815 33.6272 24.4947C32.0743 24.4947 30.3195 25.2709 29.8226 26.8231C29.027 27.0458 28.3297 27.5298 27.8427 28.1968C27.2757 28.9112 26.9592 29.792 26.942 30.7037C26.9393 31.2815 27.0979 31.8487 27.4001 32.3413C26.959 32.6295 26.5812 33.0045 26.2898 33.4434C25.8562 34.0859 25.6213 34.8416 25.6143 35.6165C25.6315 36.2072 25.7707 36.7878 26.0233 37.3221C26.2758 37.8564 26.6362 38.3326 27.0817 38.721C26.9213 39.1315 26.8396 39.5686 26.841 40.0094C26.841 41.2589 27.4855 42.6792 29.3257 43.7114C29.4699 44.2242 29.7256 44.6987 30.0746 45.1012C30.4236 45.5037 30.8572 45.8242 31.3444 46.0398C32.0346 46.3903 32.8075 46.5452 33.5795 46.4877C34.3515 46.4303 35.093 46.1626 35.7236 45.7138V49.1986H33.3942C33.2587 49.1994 33.1258 49.2356 33.0086 49.3038C32.8916 49.3718 32.7943 49.4693 32.7265 49.5867L29.9313 54.4219L16.7318 46.8159V42.3067ZM40.4909 28.5306C40.6179 28.6916 40.8035 28.7959 41.0072 28.8207C41.2109 28.8454 41.416 28.7885 41.5779 28.6625C41.768 28.5032 41.9987 28.3999 42.2442 28.3642C42.4896 28.3286 42.7402 28.362 42.9678 28.4607C43.3627 28.6511 43.7059 28.934 43.9681 29.2853C44.2303 29.6365 44.404 30.0459 44.4741 30.4786C44.4741 30.5795 44.4741 30.6726 44.4741 30.7658C44.4796 31.1615 44.329 31.5435 44.0548 31.8291C43.2646 31.7221 42.4617 31.8892 41.7798 32.3025C41.687 32.351 41.605 32.4178 41.5387 32.4988C41.4724 32.5798 41.4232 32.6734 41.394 32.7739C41.3649 32.8745 41.3563 32.9799 41.3689 33.0837C41.3816 33.1877 41.4151 33.2879 41.4675 33.3786C41.5199 33.4692 41.5901 33.5483 41.6739 33.6111C41.7577 33.6739 41.8533 33.7191 41.955 33.7441C42.0567 33.7689 42.1624 33.773 42.2657 33.756C42.3691 33.739 42.4679 33.7013 42.5563 33.6452C43.0272 33.3701 43.5879 33.2924 44.116 33.4291C44.644 33.5658 45.0965 33.9057 45.3747 34.3747C45.6417 34.7418 45.7955 35.1788 45.8173 35.632C45.8011 36.31 45.5228 36.9553 45.0409 37.4326C44.5836 36.9713 44.0119 36.6398 43.3843 36.4721C42.7567 36.3044 42.0958 36.3064 41.4692 36.478C41.2998 36.5235 41.1509 36.6249 41.0465 36.7659C40.9422 36.9068 40.8887 37.0789 40.8947 37.2541C40.8871 37.3238 40.8871 37.394 40.8947 37.4637C40.9216 37.5621 40.9677 37.6541 41.0303 37.7348C41.0929 37.8153 41.1708 37.8828 41.2595 37.9332C41.3482 37.9837 41.446 38.0161 41.5473 38.0288C41.6485 38.0414 41.7513 38.0341 41.8497 38.007C42.3805 37.8742 42.9417 37.9427 43.4249 38.1992C43.9082 38.4558 44.2792 38.8823 44.4663 39.3962C44.5643 39.6432 44.6144 39.9066 44.6138 40.1723C44.5964 40.5356 44.4973 40.8903 44.3239 41.2102C44.1505 41.5299 43.9073 41.8065 43.6122 42.0195C43.6122 41.9031 43.5346 41.7867 43.488 41.6703C43.4211 41.5007 43.2967 41.3601 43.1365 41.2731C42.9763 41.186 42.7906 41.1582 42.6119 41.1943C42.4332 41.2303 42.2729 41.3281 42.1591 41.4705C42.0453 41.6129 41.9853 41.7907 41.9895 41.9729C41.9907 42.0744 42.0118 42.1746 42.0516 42.2679C42.2389 42.7046 42.2507 43.1967 42.0844 43.642C41.9181 44.0872 41.5866 44.4512 41.1587 44.6583L41.0034 44.7282C40.371 45.044 39.6392 45.0964 38.9682 44.8738C38.2972 44.6512 37.7419 44.1718 37.424 43.5407V43.4941C37.3811 43.4413 37.3316 43.3943 37.2764 43.3544V39.3962L39.8853 37.8906C40.0038 37.8222 40.1021 37.7237 40.1702 37.6051C40.2384 37.4866 40.2741 37.3521 40.2735 37.2153V33.7849C40.2741 33.6481 40.2384 33.5136 40.1702 33.395C40.1021 33.2765 40.0038 33.178 39.8853 33.1097L37.2764 31.635V27.4673C37.5327 26.1479 38.9303 26.047 39.3573 26.047C39.7507 26.0321 40.1425 26.1029 40.5058 26.2543C40.8691 26.4057 41.1952 26.6342 41.4615 26.924C41.1572 27.0384 40.8719 27.198 40.6151 27.3974C40.454 27.5243 40.3497 27.7099 40.3249 27.9135C40.3001 28.117 40.3571 28.3222 40.4832 28.484L40.4909 28.5306ZM30.5214 41.1891C30.3319 41.1089 30.1184 41.1073 29.9277 41.1844C29.7369 41.2615 29.5847 41.4111 29.5042 41.6004C29.456 41.7143 29.4144 41.8308 29.38 41.9497C29.0844 41.7355 28.8409 41.4575 28.6675 41.1364C28.4941 40.8153 28.3953 40.4593 28.3784 40.0947C28.3743 39.8294 28.4217 39.5658 28.5182 39.3186C28.7079 38.81 29.077 38.3881 29.5559 38.1323C30.0349 37.8765 30.5908 37.8043 31.1192 37.9294C31.2176 37.9564 31.3204 37.9638 31.4217 37.9512C31.523 37.9385 31.6208 37.9061 31.7094 37.8556C31.7982 37.8052 31.876 37.7377 31.9386 37.6572C32.0012 37.5765 32.0473 37.4845 32.0743 37.3861C32.0823 37.3165 32.0823 37.2461 32.0743 37.1765C32.0807 37.0023 32.0283 36.831 31.9255 36.6902C31.8227 36.5494 31.6754 36.4474 31.5075 36.4004C30.8775 36.2436 30.2173 36.2565 29.5939 36.4379C28.9706 36.6192 28.4065 36.9625 27.9591 37.4326C27.476 36.9529 27.1977 36.3048 27.1827 35.6243C27.1832 35.1626 27.321 34.7114 27.5787 34.3282C27.8567 33.8589 28.3098 33.5192 28.8384 33.3839C29.367 33.2485 29.9276 33.3285 30.3972 33.6064C30.4853 33.658 30.5828 33.6918 30.6841 33.7056C30.7852 33.7195 30.8883 33.7133 30.987 33.6874C31.0859 33.6614 31.1786 33.6162 31.2599 33.5544C31.3412 33.4925 31.4095 33.4152 31.4609 33.327C31.5125 33.2388 31.5463 33.1414 31.5602 33.0402C31.5741 32.939 31.5679 32.8361 31.5419 32.7373C31.516 32.6386 31.4707 32.5459 31.4089 32.4646C31.347 32.3833 31.2697 32.315 31.1814 32.2637C30.4986 31.8524 29.6973 31.6829 28.9064 31.7825C28.6344 31.4961 28.4865 31.114 28.4949 30.7192C28.5144 30.1535 28.7158 29.6091 29.0694 29.167C29.1859 29.0118 30.2419 27.7156 31.3988 28.6159C31.4794 28.6786 31.5714 28.7248 31.6698 28.7519C31.7683 28.779 31.8711 28.7864 31.9724 28.7739C32.0737 28.7612 32.1715 28.7288 32.2602 28.6784C32.349 28.628 32.4269 28.5606 32.4897 28.4801C32.5524 28.3996 32.5986 28.3075 32.6257 28.2091C32.6528 28.1108 32.6603 28.008 32.6477 27.9067C32.635 27.8055 32.6026 27.7077 32.5522 27.619C32.5018 27.5302 32.4344 27.4523 32.3538 27.3897C32.0971 27.1903 31.8118 27.0306 31.5075 26.9162C31.7762 26.6258 32.1051 26.3976 32.4712 26.2474C32.8374 26.0973 33.2319 26.0288 33.6272 26.047C34.062 26.047 35.4984 26.1479 35.7236 27.5294C35.7236 27.5294 35.7236 27.5294 35.7236 27.5759V31.635L33.1069 33.1097C32.9885 33.178 32.8902 33.2765 32.822 33.395C32.7538 33.5136 32.7182 33.6481 32.7187 33.7849V37.2541C32.7196 37.3896 32.7558 37.5224 32.8239 37.6396C32.892 37.7566 32.9896 37.8538 33.1069 37.9216L35.7313 39.4738V43.3544C35.684 43.4021 35.6446 43.4571 35.6149 43.5174C35.4637 43.8331 35.2517 44.1158 34.9911 44.3495C34.7305 44.5831 34.4263 44.7632 34.096 44.8792C33.7658 44.9953 33.4157 45.0451 33.0662 45.0258C32.7166 45.0066 32.3743 44.9186 32.0587 44.767H32.0122C31.5555 44.6049 31.1809 44.2701 30.9688 43.8345C30.7568 43.3991 30.7244 42.8978 30.8785 42.4386C30.8959 42.3856 30.9167 42.3338 30.9407 42.2834C31.0208 42.094 31.0225 41.8805 30.9453 41.6899C30.8682 41.4993 30.7185 41.3471 30.5292 41.2667L30.5214 41.1891ZM38.7206 36.804L36.5 38.0923L34.2716 36.804V34.235L36.5 32.9467L38.7206 34.235V36.804ZM39.1554 59.9556H33.8368L31.1814 55.3532L33.8368 50.7508H39.1554L41.8109 55.3532L39.1554 59.9556ZM42.9755 54.2667L40.2735 49.61C40.2058 49.4926 40.1085 49.3951 39.9914 49.3271C39.8742 49.2589 39.7413 49.2227 39.6058 49.2219H37.2764V45.7294C37.8999 46.1873 38.6372 46.4657 39.4079 46.5341C40.1786 46.6025 40.9534 46.4584 41.6478 46.1174C42.136 45.9032 42.5704 45.5831 42.9196 45.1805C43.2686 44.7778 43.5239 44.3025 43.6666 43.7891C45.5067 42.7568 46.1512 41.3365 46.1512 40.087C46.1521 39.647 46.0732 39.2104 45.9183 38.7986C46.3656 38.4118 46.7273 37.9359 46.98 37.4013C47.2327 36.8667 47.3709 36.2852 47.3857 35.6941C47.3852 34.9193 47.1526 34.1625 46.718 33.521C46.4232 33.0827 46.0461 32.7058 45.6077 32.4112C45.9113 31.9163 46.07 31.3462 46.0658 30.7658C46.0658 30.6028 46.0658 30.4398 46.0658 30.2768C45.9616 29.5586 45.6758 28.8788 45.2357 28.3016C44.7955 27.7245 44.2154 27.269 43.5501 26.9783C43.4261 26.9288 43.299 26.8873 43.1696 26.8541C42.6727 25.3019 40.949 24.5258 39.3728 24.5258C38.6452 24.5096 37.9264 24.6892 37.292 25.0458V21.8637H39.6213C39.7568 21.8628 39.8897 21.8266 40.0069 21.7585C40.124 21.6905 40.2213 21.5929 40.289 21.4756L42.9833 16.8189L55.9111 24.2309V28.9962L51.1127 31.767C50.9942 31.8354 50.8959 31.9338 50.8277 32.0524C50.7595 32.1709 50.7239 32.3054 50.7244 32.4422V38.6512C50.7253 38.7866 50.7615 38.9195 50.8296 39.0366C50.8977 39.1536 50.9953 39.2509 51.1127 39.3186L55.9111 42.0894V46.8237L42.9755 54.2667ZM61.4471 38.201L56.8428 40.8553L52.2385 38.201V32.8846L56.8428 30.2303L61.4471 32.8846V38.201Z" fill="#7D63FF"/>
</g>
<defs>
<filter id="filter0_b_3088_12612" x="-20" y="-20" width="111.485" height="111.485" filterUnits="userSpaceOnUse" color-interpolation-filters="sRGB">
<feFlood flood-opacity="0" result="BackgroundImageFix"/>
<feGaussianBlur in="BackgroundImageFix" stdDeviation="10"/>
<feComposite in2="SourceAlpha" operator="in" result="effect1_backgroundBlur_3088_12612"/>
<feBlend mode="normal" in="SourceGraphic" in2="effect1_backgroundBlur_3088_12612" result="shape"/>
</filter>
</defs>
</svg>
